# Blender 4.4.3
# www.blender.org
mtllib cylender.mtl
o Cylinder
v 0.000000 -1.000000 -0.440454
v 0.000000 1.000000 -1.000000
v 0.085928 -1.000000 -0.431990
v 0.195090 1.000000 -0.980785
v 0.168554 -1.000000 -0.406926
v 0.382683 1.000000 -0.923880
v 0.244703 -1.000000 -0.366224
v 0.555570 1.000000 -0.831470
v 0.311448 -1.000000 -0.311448
v 0.707107 1.000000 -0.707107
v 0.366224 -1.000000 -0.244703
v 0.831470 1.000000 -0.555570
v 0.406926 -1.000000 -0.168554
v 0.923880 1.000000 -0.382683
v 0.431990 -1.000000 -0.085928
v 0.980785 1.000000 -0.195090
v 0.440454 -1.000000 -0.000000
v 1.000000 1.000000 0.000000
v 0.431990 -1.000000 0.085928
v 0.980785 1.000000 0.195090
v 0.406926 -1.000000 0.168554
v 0.923880 1.000000 0.382683
v 0.366224 -1.000000 0.244703
v 0.831470 1.000000 0.555570
v 0.311448 -1.000000 0.311448
v 0.707107 1.000000 0.707107
v 0.244703 -1.000000 0.366224
v 0.555570 1.000000 0.831470
v 0.168554 -1.000000 0.406926
v 0.382683 1.000000 0.923880
v 0.085928 -1.000000 0.431990
v 0.195090 1.000000 0.980785
v 0.000000 -1.000000 0.440454
v 0.000000 1.000000 1.000000
v -0.085928 -1.000000 0.431990
v -0.195090 1.000000 0.980785
v -0.168554 -1.000000 0.406926
v -0.382683 1.000000 0.923880
v -0.244703 -1.000000 0.366224
v -0.555570 1.000000 0.831470
v -0.311448 -1.000000 0.311448
v -0.707107 1.000000 0.707107
v -0.366224 -1.000000 0.244703
v -0.831470 1.000000 0.555570
v -0.406926 -1.000000 0.168554
v -0.923880 1.000000 0.382683
v -0.431990 -1.000000 0.085928
v -0.980785 1.000000 0.195090
v -0.440454 -1.000000 -0.000000
v -1.000000 1.000000 0.000000
v -0.431990 -1.000000 -0.085928
v -0.980785 1.000000 -0.195090
v -0.406926 -1.000000 -0.168554
v -0.923880 1.000000 -0.382683
v -0.366224 -1.000000 -0.244703
v -0.831470 1.000000 -0.555570
v -0.311448 -1.000000 -0.311448
v -0.707107 1.000000 -0.707107
v -0.244703 -1.000000 -0.366224
v -0.555570 1.000000 -0.831470
v -0.168554 -1.000000 -0.406926
v -0.382683 1.000000 -0.923880
v -0.085928 -1.000000 -0.431990
v -0.195090 1.000000 -0.980785
v 0.000000 -0.967958 -1.000000
v 0.000000 0.967958 -1.000000
v 0.195090 0.967958 -0.980785
v 0.195090 -0.967958 -0.980785
v 0.382683 0.967958 -0.923880
v 0.382683 -0.967958 -0.923880
v 0.555570 0.967958 -0.831470
v 0.555570 -0.967958 -0.831470
v 0.707107 0.967958 -0.707107
v 0.707107 -0.967958 -0.707107
v 0.831470 0.967958 -0.555570
v 0.831470 -0.967958 -0.555570
v 0.923880 0.967958 -0.382683
v 0.923880 -0.967958 -0.382683
v 0.980785 0.967958 -0.195090
v 0.980785 -0.967958 -0.195090
v 1.000000 0.967958 0.000000
v 1.000000 -0.967958 0.000000
v 0.980785 0.967958 0.195090
v 0.980785 -0.967958 0.195090
v 0.923880 0.967958 0.382683
v 0.923880 -0.967958 0.382683
v 0.831470 0.967958 0.555570
v 0.831470 -0.967958 0.555570
v 0.707107 0.967958 0.707107
v 0.707107 -0.967958 0.707107
v 0.555570 0.967958 0.831470
v 0.555570 -0.967958 0.831470
v 0.382683 0.967958 0.923880
v 0.382683 -0.967958 0.923880
v 0.195090 0.967958 0.980785
v 0.195090 -0.967958 0.980785
v 0.000000 0.967958 1.000000
v 0.000000 -0.967958 1.000000
v -0.195090 0.967958 0.980785
v -0.195090 -0.967958 0.980785
v -0.382683 0.967958 0.923880
v -0.382683 -0.967958 0.923880
v -0.555570 0.967958 0.831470
v -0.555570 -0.967958 0.831470
v -0.707107 0.967958 0.707107
v -0.707107 -0.967958 0.707107
v -0.831470 0.967958 0.555570
v -0.831470 -0.967958 0.555570
v -0.923880 0.967958 0.382683
v -0.923880 -0.967958 0.382683
v -0.980785 0.967958 0.195090
v -0.980785 -0.967958 0.195090
v -1.000000 0.967958 0.000000
v -1.000000 -0.967958 0.000000
v -0.980785 0.967958 -0.195090
v -0.980785 -0.967958 -0.195090
v -0.923880 0.967958 -0.382683
v -0.923880 -0.967958 -0.382683
v -0.831470 0.967958 -0.555570
v -0.831470 -0.967958 -0.555570
v -0.707107 0.967958 -0.707107
v -0.707107 -0.967958 -0.707107
v -0.555570 0.967958 -0.831470
v -0.555570 -0.967958 -0.831470
v -0.382683 0.967958 -0.923880
v -0.382683 -0.967958 -0.923880
v -0.195090 0.967958 -0.980785
v -0.195090 -0.967958 -0.980785
v 0.000000 1.000000 -0.421628
v 0.082255 1.000000 -0.413526
v 0.161350 1.000000 -0.389533
v 0.234244 1.000000 -0.350571
v 0.298136 1.000000 -0.298136
v 0.350571 1.000000 -0.234244
v 0.389533 1.000000 -0.161350
v 0.413526 1.000000 -0.082255
v 0.421628 1.000000 -0.000000
v 0.413526 1.000000 0.082255
v 0.389533 1.000000 0.161350
v 0.350571 1.000000 0.234244
v 0.298136 1.000000 0.298136
v 0.234244 1.000000 0.350571
v 0.161350 1.000000 0.389533
v 0.082255 1.000000 0.413526
v 0.000000 1.000000 0.421628
v -0.082255 1.000000 0.413526
v -0.161350 1.000000 0.389533
v -0.234244 1.000000 0.350571
v -0.298136 1.000000 0.298136
v -0.350571 1.000000 0.234244
v -0.389533 1.000000 0.161350
v -0.413526 1.000000 0.082255
v -0.421628 1.000000 -0.000000
v -0.413526 1.000000 -0.082255
v -0.389533 1.000000 -0.161350
v -0.350571 1.000000 -0.234244
v -0.298136 1.000000 -0.298136
v -0.234244 1.000000 -0.350571
v -0.161350 1.000000 -0.389533
v -0.082255 1.000000 -0.413526
v -0.324869 1.000000 -0.221361
v -0.247506 1.000000 -0.271784
v -0.160416 1.000000 -0.310682
v -0.066946 1.000000 -0.336559
v 0.029312 1.000000 -0.348421
v 0.124658 1.000000 -0.345812
v 0.215429 1.000000 -0.328833
v -0.338334 1.000000 -0.132138
v -0.249889 1.000000 -0.175683
v -0.151591 1.000000 -0.211217
v -0.047217 1.000000 -0.237374
v 0.059223 1.000000 -0.253150
v 0.163637 1.000000 -0.257938
v 0.262013 1.000000 -0.251554
v -0.338257 1.000000 -0.035122
v -0.241729 1.000000 -0.068098
v -0.135753 1.000000 -0.097661
v -0.024401 1.000000 -0.122674
v 0.088046 1.000000 -0.142177
v 0.197268 1.000000 -0.155420
v 0.299068 1.000000 -0.161894
v -0.324906 1.000000 0.064628
v -0.223799 1.000000 0.044516
v -0.114092 1.000000 0.022694
v -0.000000 1.000000 -0.000000
v 0.114092 1.000000 -0.022694
v 0.223799 1.000000 -0.044516
v 0.324906 1.000000 -0.064628
v -0.299068 1.000000 0.161894
v -0.197268 1.000000 0.155420
v -0.088046 1.000000 0.142177
v 0.024401 1.000000 0.122674
v 0.135753 1.000000 0.097661
v 0.241729 1.000000 0.068098
v 0.338257 1.000000 0.035122
v -0.262013 1.000000 0.251554
v -0.163637 1.000000 0.257938
v -0.059223 1.000000 0.253150
v 0.047217 1.000000 0.237374
v 0.151591 1.000000 0.211217
v 0.249889 1.000000 0.175683
v 0.338334 1.000000 0.132138
v -0.215429 1.000000 0.328833
v -0.124658 1.000000 0.345812
v -0.029312 1.000000 0.348421
v 0.066946 1.000000 0.336559
v 0.160416 1.000000 0.310682
v 0.247506 1.000000 0.271784
v 0.324869 1.000000 0.221361
v 0.343515 -1.000000 0.225048
v 0.361253 -1.000000 0.130224
v 0.363978 -1.000000 0.030621
v 0.351586 -1.000000 -0.069935
v 0.324554 -1.000000 -0.167578
v 0.283919 -1.000000 -0.258557
v 0.231245 -1.000000 -0.339375
v 0.262786 -1.000000 0.273712
v 0.269455 -1.000000 0.170943
v 0.264454 -1.000000 0.061867
v 0.247973 -1.000000 -0.049325
v 0.220648 -1.000000 -0.158360
v 0.183527 -1.000000 -0.261047
v 0.138038 -1.000000 -0.353441
v 0.169122 -1.000000 0.312422
v 0.162359 -1.000000 0.206076
v 0.148525 -1.000000 0.091977
v 0.128152 -1.000000 -0.025491
v 0.102021 -1.000000 -0.141814
v 0.071139 -1.000000 -0.252522
v 0.036690 -1.000000 -0.353360
v 0.067513 -1.000000 0.339413
v 0.046504 -1.000000 0.233792
v 0.023708 -1.000000 0.119186
v -0.000000 -1.000000 0.000000
v -0.023708 -1.000000 -0.119186
v -0.046504 -1.000000 -0.233791
v -0.067513 -1.000000 -0.339413
v -0.036690 -1.000000 0.353360
v -0.071139 -1.000000 0.252522
v -0.102021 -1.000000 0.141814
v -0.128152 -1.000000 0.025491
v -0.148525 -1.000000 -0.091977
v -0.162360 -1.000000 -0.206076
v -0.169122 -1.000000 -0.312422
v -0.138038 -1.000000 0.353441
v -0.183527 -1.000000 0.261047
v -0.220648 -1.000000 0.158360
v -0.247973 -1.000000 0.049325
v -0.264454 -1.000000 -0.061867
v -0.269455 -1.000000 -0.170943
v -0.262786 -1.000000 -0.273712
v -0.231245 -1.000000 0.339375
v -0.283919 -1.000000 0.258557
v -0.324554 -1.000000 0.167578
v -0.351586 -1.000000 0.069935
v -0.363978 -1.000000 -0.030621
v -0.361253 -1.000000 -0.130224
v -0.343515 -1.000000 -0.225048
v -0.697156 1.000000 0.138673
v -0.656706 1.000000 0.272017
v 0.138673 1.000000 -0.697156
v 0.000000 1.000000 -0.710814
v -0.138673 1.000000 -0.697156
v 0.656706 1.000000 0.272017
v 0.697156 1.000000 0.138673
v -0.394907 1.000000 0.591020
v -0.272017 1.000000 0.656706
v -0.502621 1.000000 -0.502621
v -0.591020 1.000000 -0.394907
v 0.656706 1.000000 -0.272017
v 0.591020 1.000000 -0.394907
v 0.138673 1.000000 0.697156
v 0.272017 1.000000 0.656706
v -0.710814 1.000000 -0.000000
v 0.272017 1.000000 -0.656706
v 0.591020 1.000000 0.394907
v -0.502621 1.000000 0.502621
v -0.394907 1.000000 -0.591020
v 0.697156 1.000000 -0.138673
v 0.000000 1.000000 0.710814
v -0.697156 1.000000 -0.138673
v 0.394907 1.000000 -0.591020
v 0.502621 1.000000 0.502621
v -0.591020 1.000000 0.394907
v -0.272017 1.000000 -0.656706
v 0.710814 1.000000 -0.000000
v -0.138673 1.000000 0.697156
v -0.656706 1.000000 -0.272017
v 0.502621 1.000000 -0.502621
v 0.394907 1.000000 0.591020
v 0.141284 -0.983979 -0.710283
v 0.277139 -0.983979 -0.669072
v 0.402343 -0.983979 -0.602149
v 0.512085 -0.983979 -0.512085
v 0.602149 -0.983979 -0.402343
v 0.669072 -0.983979 -0.277139
v 0.710283 -0.983979 -0.141284
v 0.724198 -0.983979 -0.000000
v 0.710283 -0.983979 0.141284
v 0.669072 -0.983979 0.277139
v 0.602149 -0.983979 0.402343
v 0.512085 -0.983979 0.512085
v 0.402343 -0.983979 0.602149
v 0.277139 -0.983979 0.669072
v 0.141284 -0.983979 0.710283
v 0.000000 -0.983979 0.724198
v -0.141284 -0.983979 0.710283
v -0.277139 -0.983979 0.669072
v -0.402343 -0.983979 0.602149
v -0.512085 -0.983979 0.512085
v -0.602149 -0.983979 0.402343
v -0.669072 -0.983979 0.277139
v -0.710283 -0.983979 0.141284
v -0.724198 -0.983979 -0.000000
v -0.710283 -0.983979 -0.141284
v -0.669072 -0.983979 -0.277139
v -0.602149 -0.983979 -0.402343
v -0.512085 -0.983979 -0.512085
v -0.402343 -0.983979 -0.602149
v -0.277139 -0.983979 -0.669072
v -0.141284 -0.983979 -0.710283
v 0.000000 -0.983979 -0.724198
vn -0.0000 -0.9996 -0.0300
vn -0.0000 0.6857 -0.7279
vn 0.0058 -0.9996 -0.0294
vn 0.1420 0.6857 -0.7139
vn 0.0115 -0.9996 -0.0277
vn 0.2785 0.6857 -0.6725
vn 0.0166 -0.9996 -0.0249
vn 0.4044 0.6857 -0.6052
vn 0.0212 -0.9996 -0.0212
vn 0.5147 0.6857 -0.5147
vn 0.0249 -0.9996 -0.0166
vn 0.6052 0.6857 -0.4044
vn 0.0277 -0.9996 -0.0115
vn 0.6725 0.6857 -0.2786
vn 0.0294 -0.9996 -0.0058
vn 0.7139 0.6857 -0.1420
vn 0.0300 -0.9996 -0.0000
vn 0.7279 0.6857 -0.0000
vn 0.0294 -0.9996 0.0058
vn 0.7139 0.6857 0.1420
vn 0.0277 -0.9996 0.0115
vn 0.6725 0.6857 0.2785
vn 0.0249 -0.9996 0.0166
vn 0.6052 0.6857 0.4044
vn 0.0212 -0.9996 0.0212
vn 0.5147 0.6857 0.5147
vn 0.0166 -0.9996 0.0249
vn 0.4044 0.6857 0.6052
vn 0.0115 -0.9996 0.0277
vn 0.2786 0.6857 0.6725
vn 0.0058 -0.9996 0.0294
vn 0.1420 0.6857 0.7139
vn -0.0000 -0.9996 0.0300
vn -0.0000 0.6857 0.7279
vn -0.0058 -0.9996 0.0294
vn -0.1420 0.6857 0.7139
vn -0.0115 -0.9996 0.0277
vn -0.2785 0.6857 0.6725
vn -0.0166 -0.9996 0.0249
vn -0.4044 0.6857 0.6052
vn -0.0212 -0.9996 0.0212
vn -0.5147 0.6857 0.5147
vn -0.0249 -0.9996 0.0166
vn -0.6052 0.6857 0.4044
vn -0.0277 -0.9996 0.0115
vn -0.6725 0.6857 0.2786
vn -0.0294 -0.9996 0.0058
vn -0.7139 0.6857 0.1420
vn -0.0300 -0.9996 -0.0000
vn -0.7279 0.6857 -0.0000
vn -0.0294 -0.9996 -0.0058
vn -0.7139 0.6857 -0.1420
vn -0.0277 -0.9996 -0.0115
vn -0.6725 0.6857 -0.2785
vn -0.0249 -0.9996 -0.0166
vn -0.6052 0.6857 -0.4044
vn -0.0212 -0.9996 -0.0212
vn -0.5147 0.6857 -0.5147
vn -0.0166 -0.9996 -0.0249
vn -0.4044 0.6857 -0.6052
vn -0.0115 -0.9996 -0.0277
vn -0.2786 0.6857 -0.6725
vn -0.0058 -0.9996 -0.0294
vn -0.1420 0.6857 -0.7139
vn -0.0000 -0.6656 -0.7463
vn -0.0000 -0.0000 -1.0000
vn 0.1951 -0.0000 -0.9808
vn 0.1456 -0.6656 -0.7320
vn 0.3827 -0.0000 -0.9239
vn 0.2856 -0.6656 -0.6895
vn 0.5556 -0.0000 -0.8315
vn 0.4146 -0.6656 -0.6205
vn 0.7071 -0.0000 -0.7071
vn 0.5277 -0.6656 -0.5277
vn 0.8315 -0.0000 -0.5556
vn 0.6205 -0.6656 -0.4146
vn 0.9239 -0.0000 -0.3827
vn 0.6895 -0.6656 -0.2856
vn 0.9808 -0.0000 -0.1951
vn 0.7320 -0.6656 -0.1456
vn 1.0000 -0.0000 -0.0000
vn 0.7463 -0.6656 -0.0000
vn 0.9808 -0.0000 0.1951
vn 0.7320 -0.6656 0.1456
vn 0.9239 -0.0000 0.3827
vn 0.6895 -0.6656 0.2856
vn 0.8315 -0.0000 0.5556
vn 0.6205 -0.6656 0.4146
vn 0.7071 -0.0000 0.7071
vn 0.5277 -0.6656 0.5277
vn 0.5556 -0.0000 0.8315
vn 0.4146 -0.6656 0.6205
vn 0.3827 -0.0000 0.9239
vn 0.2856 -0.6656 0.6895
vn 0.1951 -0.0000 0.9808
vn 0.1456 -0.6656 0.7320
vn -0.0000 -0.0000 1.0000
vn -0.0000 -0.6656 0.7463
vn -0.1951 -0.0000 0.9808
vn -0.1456 -0.6656 0.7320
vn -0.3827 -0.0000 0.9239
vn -0.2856 -0.6656 0.6895
vn -0.5556 -0.0000 0.8315
vn -0.4146 -0.6656 0.6205
vn -0.7071 -0.0000 0.7071
vn -0.5277 -0.6656 0.5277
vn -0.8315 -0.0000 0.5556
vn -0.6205 -0.6656 0.4146
vn -0.9239 -0.0000 0.3827
vn -0.6895 -0.6656 0.2856
vn -0.9808 -0.0000 0.1951
vn -0.7320 -0.6656 0.1456
vn -1.0000 -0.0000 -0.0000
vn -0.7463 -0.6656 -0.0000
vn -0.9808 -0.0000 -0.1951
vn -0.7320 -0.6656 -0.1456
vn -0.9239 -0.0000 -0.3827
vn -0.6895 -0.6656 -0.2856
vn -0.8315 -0.0000 -0.5556
vn -0.6205 -0.6656 -0.4146
vn -0.7071 -0.0000 -0.7071
vn -0.5277 -0.6656 -0.5277
vn -0.5556 -0.0000 -0.8315
vn -0.4146 -0.6656 -0.6205
vn -0.3827 -0.0000 -0.9239
vn -0.2856 -0.6656 -0.6895
vn -0.1951 -0.0000 -0.9808
vn -0.1456 -0.6656 -0.7320
vn -0.0000 1.0000 -0.0000
vn -0.0000 -1.0000 -0.0000
vn 0.0112 -0.9984 -0.0561
vn 0.0219 -0.9984 -0.0529
vn 0.0318 -0.9984 -0.0476
vn 0.0405 -0.9984 -0.0405
vn 0.0476 -0.9984 -0.0318
vn 0.0529 -0.9984 -0.0219
vn 0.0561 -0.9984 -0.0112
vn 0.0572 -0.9984 -0.0000
vn 0.0561 -0.9984 0.0112
vn 0.0529 -0.9984 0.0219
vn 0.0476 -0.9984 0.0318
vn 0.0405 -0.9984 0.0405
vn 0.0318 -0.9984 0.0476
vn 0.0219 -0.9984 0.0529
vn 0.0112 -0.9984 0.0561
vn -0.0000 -0.9984 0.0572
vn -0.0112 -0.9984 0.0561
vn -0.0219 -0.9984 0.0529
vn -0.0318 -0.9984 0.0476
vn -0.0405 -0.9984 0.0405
vn -0.0476 -0.9984 0.0318
vn -0.0529 -0.9984 0.0219
vn -0.0561 -0.9984 0.0112
vn -0.0572 -0.9984 -0.0000
vn -0.0561 -0.9984 -0.0112
vn -0.0529 -0.9984 -0.0219
vn -0.0476 -0.9984 -0.0318
vn -0.0405 -0.9984 -0.0405
vn -0.0318 -0.9984 -0.0476
vn -0.0219 -0.9984 -0.0529
vn -0.0112 -0.9984 -0.0561
vn -0.0000 -0.9984 -0.0572
vt 1.000000 1.000000
vt 0.968750 0.991989
vt 1.000000 0.991990
vt 0.968750 1.000000
vt 0.937500 0.991990
vt 0.937500 1.000000
vt 0.906250 0.991990
vt 0.906250 1.000000
vt 0.875000 0.991990
vt 0.875000 1.000000
vt 0.843750 0.991990
vt 0.843750 1.000000
vt 0.812500 0.991990
vt 0.812500 1.000000
vt 0.781250 0.991989
vt 0.781250 1.000000
vt 0.750000 0.991990
vt 0.750000 1.000000
vt 0.718750 0.991989
vt 0.718750 1.000000
vt 0.687500 0.991990
vt 0.687500 1.000000
vt 0.656250 0.991990
vt 0.656250 1.000000
vt 0.625000 0.991990
vt 0.625000 1.000000
vt 0.593750 0.991990
vt 0.593750 1.000000
vt 0.562500 0.991990
vt 0.562500 1.000000
vt 0.531250 0.991989
vt 0.531250 1.000000
vt 0.500000 0.991990
vt 0.500000 1.000000
vt 0.468750 0.991989
vt 0.468750 1.000000
vt 0.437500 0.991990
vt 0.437500 1.000000
vt 0.406250 0.991990
vt 0.406250 1.000000
vt 0.375000 0.991990
vt 0.375000 1.000000
vt 0.343750 0.991990
vt 0.343750 1.000000
vt 0.312500 0.991990
vt 0.312500 1.000000
vt 0.281250 0.991989
vt 0.281250 1.000000
vt 0.250000 0.991990
vt 0.250000 1.000000
vt 0.218750 0.991989
vt 0.218750 1.000000
vt 0.187500 0.991990
vt 0.187500 1.000000
vt 0.156250 0.991990
vt 0.156250 1.000000
vt 0.125000 0.991990
vt 0.125000 1.000000
vt 0.093750 0.991990
vt 0.093750 1.000000
vt 0.062500 0.991990
vt 0.062500 1.000000
vt 0.031250 0.991989
vt 0.031250 1.000000
vt 0.000000 0.991990
vt 0.031250 0.508010
vt 0.000000 0.504005
vt 0.031250 0.504005
vt 0.000000 0.508010
vt 0.062500 0.504005
vt 0.062500 0.508010
vt 0.093750 0.504005
vt 0.093750 0.508010
vt 0.125000 0.508010
vt 0.125000 0.504005
vt 0.156250 0.508010
vt 0.156250 0.504005
vt 0.187500 0.508010
vt 0.187500 0.504005
vt 0.218750 0.508010
vt 0.218750 0.504005
vt 0.250000 0.504005
vt 0.250000 0.508010
vt 0.281250 0.508010
vt 0.281250 0.504005
vt 0.312500 0.504005
vt 0.312500 0.508010
vt 0.343750 0.504005
vt 0.343750 0.508010
vt 0.375000 0.508010
vt 0.375000 0.504005
vt 0.406250 0.508010
vt 0.406250 0.504005
vt 0.437500 0.508010
vt 0.437500 0.504005
vt 0.468750 0.508010
vt 0.468750 0.504005
vt 0.500000 0.504005
vt 0.500000 0.508010
vt 0.531250 0.508010
vt 0.531250 0.504005
vt 0.562500 0.504005
vt 0.562500 0.508010
vt 0.593750 0.504005
vt 0.593750 0.508010
vt 0.625000 0.508010
vt 0.625000 0.504005
vt 0.656250 0.508010
vt 0.656250 0.504005
vt 0.687500 0.508010
vt 0.687500 0.504005
vt 0.718750 0.508010
vt 0.718750 0.504005
vt 0.750000 0.508010
vt 0.750000 0.504005
vt 0.781250 0.508010
vt 0.781250 0.504005
vt 0.812500 0.504005
vt 0.812500 0.508010
vt 0.843750 0.504005
vt 0.843750 0.508010
vt 0.875000 0.508010
vt 0.875000 0.504005
vt 0.906250 0.508010
vt 0.906250 0.504005
vt 0.937500 0.508010
vt 0.937500 0.504005
vt 0.968750 0.508010
vt 0.968750 0.504005
vt 1.000000 0.504005
vt 1.000000 0.508010
vt 0.312500 1.000000
vt 0.281250 1.000000
vt 0.000000 1.000000
vt 0.687500 1.000000
vt 0.437500 1.000000
vt 0.125000 1.000000
vt 0.531250 1.000000
vt 0.250000 1.000000
vt 0.375000 1.000000
vt 0.093750 1.000000
vt 0.781250 1.000000
vt 0.500000 1.000000
vt 0.906250 1.000000
vt 0.625000 1.000000
vt 0.343750 1.000000
vt 0.468750 1.000000
vt 0.156250 1.000000
vt 0.843750 1.000000
vt 0.218750 1.000000
vt 0.262336 1.000000
vt 0.295455 1.000000
vt 0.324728 1.000000
vt 0.352273 1.000000
vt 0.379112 1.000000
vt 0.406250 1.000000
vt 0.221217 1.000000
vt 0.281250 1.000000
vt 0.321181 1.000000
vt 0.352679 1.000000
vt 0.380208 1.000000
vt 0.433388 1.000000
vt 0.221591 1.000000
vt 0.296875 1.000000
vt 0.378024 1.000000
vt 0.432292 1.000000
vt 0.460227 1.000000
vt 0.226902 1.000000
vt 0.316964 1.000000
vt 0.369960 1.000000
vt 0.434476 1.000000
vt 0.459821 1.000000
vt 0.487772 1.000000
vt 0.244318 1.000000
vt 0.348958 1.000000
vt 0.442540 1.000000
vt 0.491319 1.000000
vt 0.517045 1.000000
vt 0.840909 1.000000
vt 0.765625 1.000000
vt 0.841283 1.000000
vt 0.684476 1.000000
vt 0.741319 1.000000
vt 0.682292 1.000000
vt 0.709821 1.000000
vt 0.630208 1.000000
vt 0.629112 1.000000
vt 0.602273 1.000000
vt 0.843750 1.000000
vt 0.800164 1.000000
vt 0.767045 1.000000
vt 0.710227 1.000000
vt 0.737772 1.000000
vt 0.683388 1.000000
vt 0.656250 1.000000
vt 0.656250 0.500000
vt 0.656250 0.500000
vt 0.687500 0.500000
vt 0.625000 0.500000
vt 0.629112 0.500000
vt 0.593750 0.500000
vt 0.602273 0.500000
vt 0.562500 0.500000
vt 0.487772 0.500000
vt 0.517045 0.500000
vt 0.500000 0.500000
vt 0.531250 0.500000
vt 0.468750 0.500000
vt 0.460227 0.500000
vt 0.437500 0.500000
vt 0.433388 0.500000
vt 0.406250 0.500000
vt 0.406250 0.500000
vt 0.683388 0.500000
vt 0.718750 0.500000
vt 0.630208 0.500000
vt 0.459821 0.500000
vt 0.491319 0.500000
vt 0.432292 0.500000
vt 0.375000 0.500000
vt 0.379112 0.500000
vt 0.710227 0.500000
vt 0.750000 0.500000
vt 0.682292 0.500000
vt 0.434476 0.500000
vt 0.380208 0.500000
vt 0.343750 0.500000
vt 0.352273 0.500000
vt 0.737772 0.500000
vt 0.781250 0.500000
vt 0.709821 0.500000
vt 0.684476 0.500000
vt 0.442540 0.500000
vt 0.378024 0.500000
vt 0.352679 0.500000
vt 0.312500 0.500000
vt 0.324728 0.500000
vt 0.812500 0.500000
vt 0.767045 0.500000
vt 0.741319 0.500000
vt 0.343750 0.500000
vt 0.369960 0.500000
vt 0.321181 0.500000
vt 0.295455 0.500000
vt 0.250000 0.500000
vt 0.843750 0.500000
vt 0.800164 0.500000
vt 0.348958 0.500000
vt 0.296875 0.500000
vt 0.316964 0.500000
vt 0.281250 0.500000
vt 0.262336 0.500000
vt 0.218750 0.500000
vt 0.875000 0.500000
vt 0.843750 0.500000
vt 0.765625 0.500000
vt 0.841283 0.500000
vt 0.244318 0.500000
vt 0.221591 0.500000
vt 0.226902 0.500000
vt 0.221217 0.500000
vt 0.218750 0.500000
vt 0.187500 0.500000
vt 0.906250 0.500000
vt 0.937500 0.500000
vt 0.840909 0.500000
vt 0.968750 0.500000
vt 0.000000 0.500000
vt 0.062500 0.500000
vt 0.031250 0.500000
vt 0.093750 0.500000
vt 0.125000 0.500000
vt 0.156250 0.500000
vt 1.000000 0.500000
s 1
f 2/1/2 67/2/67 66/3/66
f 4/4/4 69/5/69 67/2/67
f 6/6/6 71/7/71 69/5/69
f 8/8/8 73/9/73 71/7/71
f 10/10/10 75/11/75 73/9/73
f 12/12/12 77/13/77 75/11/75
f 14/14/14 79/15/79 77/13/77
f 16/16/16 81/17/81 79/15/79
f 18/18/18 83/19/83 81/17/81
f 20/20/20 85/21/85 83/19/83
f 22/22/22 87/23/87 85/21/85
f 24/24/24 89/25/89 87/23/87
f 26/26/26 91/27/91 89/25/89
f 28/28/28 93/29/93 91/27/91
f 30/30/30 95/31/95 93/29/93
f 32/32/32 97/33/97 95/31/95
f 34/34/34 99/35/99 97/33/97
f 36/36/36 101/37/101 99/35/99
f 38/38/38 103/39/103 101/37/101
f 40/40/40 105/41/105 103/39/103
f 42/42/42 107/43/107 105/41/105
f 44/44/44 109/45/109 107/43/107
f 46/46/46 111/47/111 109/45/109
f 48/48/48 113/49/113 111/47/111
f 50/50/50 115/51/115 113/49/113
f 52/52/52 117/53/117 115/51/115
f 54/54/54 119/55/119 117/53/117
f 56/56/56 121/57/121 119/55/119
f 58/58/58 123/59/123 121/57/121
f 60/60/60 125/61/125 123/59/123
f 62/62/62 127/63/127 125/61/125
f 64/64/64 66/65/66 127/63/127
f 128/66/128 322/67/162 321/68/161
f 127/63/127 65/69/65 128/66/128
f 320/70/160 128/66/128 321/68/161
f 125/61/125 128/66/128 126/71/126
f 319/72/159 126/71/126 320/70/160
f 123/59/123 126/71/126 124/73/124
f 122/74/122 319/72/159 318/75/158
f 121/57/121 124/73/124 122/74/122
f 120/76/120 318/75/158 317/77/157
f 119/55/119 122/74/122 120/76/120
f 118/78/118 317/77/157 316/79/156
f 117/53/117 120/76/120 118/78/118
f 116/80/116 316/79/156 315/81/155
f 115/51/115 118/78/118 116/80/116
f 314/82/154 116/80/116 315/81/155
f 113/49/113 116/80/116 114/83/114
f 112/84/112 314/82/154 313/85/153
f 111/47/111 114/83/114 112/84/112
f 312/86/152 112/84/112 313/85/153
f 109/45/109 112/84/112 110/87/110
f 311/88/151 110/87/110 312/86/152
f 107/43/107 110/87/110 108/89/108
f 106/90/106 311/88/151 310/91/150
f 105/41/105 108/89/108 106/90/106
f 104/92/104 310/91/150 309/93/149
f 103/39/103 106/90/106 104/92/104
f 102/94/102 309/93/149 308/95/148
f 101/37/101 104/92/104 102/94/102
f 100/96/100 308/95/148 307/97/147
f 99/35/99 102/94/102 100/96/100
f 306/98/146 100/96/100 307/97/147
f 97/33/97 100/96/100 98/99/98
f 96/100/96 306/98/146 305/101/145
f 95/31/95 98/99/98 96/100/96
f 304/102/144 96/100/96 305/101/145
f 93/29/93 96/100/96 94/103/94
f 303/104/143 94/103/94 304/102/144
f 91/27/91 94/103/94 92/105/92
f 90/106/90 303/104/143 302/107/142
f 89/25/89 92/105/92 90/106/90
f 88/108/88 302/107/142 301/109/141
f 87/23/87 90/106/90 88/108/88
f 86/110/86 301/109/141 300/111/140
f 85/21/85 88/108/88 86/110/86
f 84/112/84 300/111/140 299/113/139
f 83/19/83 86/110/86 84/112/84
f 82/114/82 299/113/139 298/115/138
f 81/17/81 84/112/84 82/114/82
f 80/116/80 298/115/138 297/117/137
f 79/15/79 82/114/82 80/116/80
f 296/118/136 80/116/80 297/117/137
f 77/13/77 80/116/80 78/119/78
f 295/120/135 78/119/78 296/118/136
f 75/11/75 78/119/78 76/121/76
f 74/122/74 295/120/135 294/123/134
f 73/9/73 76/121/76 74/122/74
f 72/124/72 294/123/134 293/125/133
f 71/7/71 74/122/74 72/124/72
f 70/126/70 293/125/133 292/127/132
f 69/5/69 72/124/72 70/126/70
f 68/128/68 292/127/132 291/129/131
f 67/2/67 70/126/70 68/128/68
f 322/130/162 68/128/68 291/129/131
f 66/3/66 68/128/68 65/131/65
f 260/132/129 152/48/129 259/133/129
f 262/1/129 130/4/129 261/4/129
f 263/64/129 129/134/129 262/134/129
f 264/135/129 138/20/129 139/22/129
f 267/136/129 148/40/129 266/40/129
f 268/137/129 156/56/129 157/58/129
f 270/14/129 134/12/129 135/14/129
f 273/30/129 144/32/129 272/138/129
f 259/133/129 153/50/129 274/139/129
f 275/6/129 130/4/129 131/6/129
f 264/135/129 140/24/129 276/24/129
f 266/40/129 149/42/129 277/140/129
f 268/137/129 158/60/129 278/141/129
f 270/14/129 136/16/129 279/142/129
f 272/138/129 145/34/129 280/143/129
f 274/139/129 154/52/129 281/52/129
f 275/6/129 132/8/129 282/144/129
f 276/24/129 141/26/129 283/145/129
f 277/140/129 150/44/129 284/146/129
f 285/62/129 158/60/129 159/62/129
f 279/142/129 137/18/129 286/18/129
f 280/143/129 146/36/129 287/147/129
f 288/54/129 154/52/129 155/54/129
f 289/10/129 132/8/129 133/10/129
f 283/145/129 142/28/129 290/28/129
f 260/132/129 150/44/129 151/46/129
f 285/62/129 160/64/129 263/64/129
f 286/18/129 138/20/129 265/20/129
f 287/147/129 147/38/129 267/136/129
f 288/54/129 156/56/129 269/148/129
f 289/10/129 134/12/129 271/149/129
f 273/30/129 142/28/129 143/30/129
f 156/56/129 161/150/129 157/58/129
f 155/54/129 168/151/129 161/150/129
f 154/52/129 175/152/129 168/151/129
f 153/50/129 182/153/129 175/152/129
f 151/46/129 182/153/129 152/48/129
f 150/44/129 189/154/129 151/46/129
f 149/42/129 196/155/129 150/44/129
f 148/40/129 203/156/129 149/42/129
f 157/58/129 162/157/129 158/60/129
f 161/150/129 169/158/129 162/157/129
f 168/151/129 176/159/129 169/158/129
f 175/152/129 183/160/129 176/159/129
f 189/154/129 183/160/129 182/153/129
f 196/155/129 190/161/129 189/154/129
f 203/156/129 197/40/129 196/155/129
f 147/38/129 204/162/129 203/156/129
f 158/60/129 163/163/129 159/62/129
f 162/157/129 170/164/129 163/163/129
f 169/158/129 177/44/129 170/164/129
f 176/159/129 184/165/129 177/44/129
f 190/161/129 184/165/129 183/160/129
f 197/40/129 191/40/129 190/161/129
f 204/162/129 198/166/129 197/40/129
f 146/36/129 205/167/129 204/162/129
f 159/62/129 164/168/129 160/64/129
f 163/163/129 171/169/129 164/168/129
f 170/164/129 178/170/129 171/169/129
f 177/44/129 185/40/129 178/170/129
f 191/40/129 185/40/129 184/165/129
f 198/166/129 192/171/129 191/40/129
f 205/167/129 199/172/129 198/166/129
f 145/34/129 206/173/129 205/167/129
f 164/168/129 129/134/129 160/64/129
f 171/169/129 165/174/129 164/168/129
f 178/170/129 172/175/129 171/169/129
f 185/40/129 179/40/129 178/170/129
f 185/40/129 193/36/129 186/176/129
f 192/171/129 200/177/129 193/36/129
f 199/172/129 207/178/129 200/177/129
f 206/173/129 143/30/129 207/178/129
f 165/179/129 130/4/129 129/1/129
f 172/180/129 166/181/129 165/179/129
f 179/20/129 173/16/129 172/180/129
f 186/182/129 180/183/129 179/20/129
f 186/182/129 194/184/129 187/185/129
f 193/24/129 201/24/129 194/184/129
f 200/186/129 208/187/129 201/24/129
f 207/188/129 142/28/129 208/187/129
f 166/181/129 131/6/129 130/4/129
f 173/16/129 167/189/129 166/181/129
f 180/183/129 174/190/129 173/16/129
f 187/185/129 181/191/129 180/183/129
f 187/185/129 195/192/129 188/193/129
f 194/184/129 202/194/129 195/192/129
f 201/24/129 209/195/129 202/194/129
f 208/187/129 141/26/129 209/195/129
f 167/189/129 132/8/129 131/6/129
f 174/190/129 133/10/129 167/189/129
f 181/191/129 134/12/129 174/190/129
f 188/193/129 135/14/129 181/191/129
f 188/193/129 137/18/129 136/16/129
f 195/192/129 138/20/129 137/18/129
f 202/194/129 139/22/129 138/20/129
f 209/195/129 140/24/129 139/22/129
f 23/196/23 210/197/130 21/198/21
f 25/199/25 217/200/130 210/197/130
f 27/201/27 224/202/130 217/200/130
f 29/203/29 231/204/130 224/205/130
f 33/206/33 231/204/130 31/207/31
f 35/208/35 238/209/130 33/206/33
f 37/210/37 245/211/130 35/208/35
f 39/212/39 252/213/130 37/210/37
f 21/198/21 211/214/130 19/215/19
f 210/197/130 218/197/130 211/214/130
f 217/200/130 225/216/130 218/197/130
f 224/205/130 232/217/130 225/218/130
f 238/209/130 232/217/130 231/204/130
f 245/211/130 239/219/130 238/209/130
f 252/213/130 246/212/130 245/211/130
f 41/220/41 253/221/130 252/213/130
f 19/215/19 212/222/130 17/223/17
f 211/214/130 219/224/130 212/222/130
f 218/197/130 226/196/130 219/224/130
f 225/218/130 233/225/130 226/208/130
f 239/219/130 233/225/130 232/217/130
f 246/212/130 240/212/130 239/219/130
f 253/221/130 247/226/130 246/212/130
f 43/227/43 254/228/130 253/221/130
f 17/223/17 213/229/130 15/230/15
f 212/222/130 220/231/130 213/229/130
f 219/224/130 227/232/130 220/231/130
f 226/208/130 234/212/130 227/233/130
f 240/212/130 234/212/130 233/225/130
f 247/226/130 241/234/130 240/212/130
f 254/228/130 248/235/130 247/226/130
f 45/236/45 255/237/130 254/228/130
f 213/229/130 13/238/13 15/230/15
f 220/231/130 214/239/130 213/229/130
f 227/232/130 221/240/130 220/231/130
f 234/212/130 228/212/130 227/233/130
f 234/212/130 242/241/130 235/242/130
f 241/234/130 249/243/130 242/241/130
f 248/235/130 256/244/130 249/243/130
f 255/237/130 49/245/49 256/244/130
f 214/239/130 11/246/11 13/238/13
f 221/240/130 215/247/130 214/239/130
f 228/215/130 222/230/130 221/240/130
f 235/242/130 229/248/130 228/212/130
f 235/242/130 243/249/130 236/250/130
f 242/241/130 250/251/130 243/249/130
f 249/243/130 257/252/130 250/251/130
f 256/244/130 51/253/51 257/252/130
f 215/247/130 9/254/9 11/246/11
f 222/230/130 216/255/130 215/247/130
f 229/256/130 223/257/130 222/230/130
f 236/250/130 230/258/130 229/248/130
f 236/250/130 244/259/130 237/260/130
f 243/249/130 251/261/130 244/259/130
f 250/251/130 258/262/130 251/261/130
f 257/252/130 53/263/53 258/262/130
f 216/255/130 7/264/7 9/254/9
f 223/257/130 5/265/5 216/255/130
f 230/266/130 3/267/3 223/257/130
f 237/260/130 1/268/1 230/258/130
f 237/260/130 61/269/61 63/270/63
f 244/259/130 59/271/59 61/269/61
f 251/261/130 57/272/57 59/271/59
f 258/262/130 55/273/55 57/272/57
f 23/196/23 25/199/25 210/197/130
f 25/199/25 27/201/27 217/200/130
f 27/201/27 29/203/29 224/202/130
f 29/203/29 31/207/31 231/204/130
f 33/206/33 238/209/130 231/204/130
f 35/208/35 245/211/130 238/209/130
f 37/210/37 252/213/130 245/211/130
f 39/212/39 41/220/41 252/213/130
f 21/198/21 210/197/130 211/214/130
f 210/197/130 217/200/130 218/197/130
f 217/200/130 224/202/130 225/216/130
f 224/205/130 231/204/130 232/217/130
f 238/209/130 239/219/130 232/217/130
f 245/211/130 246/212/130 239/219/130
f 252/213/130 253/221/130 246/212/130
f 41/220/41 43/227/43 253/221/130
f 19/215/19 211/214/130 212/222/130
f 211/214/130 218/197/130 219/224/130
f 218/197/130 225/216/130 226/196/130
f 225/218/130 232/217/130 233/225/130
f 239/219/130 240/212/130 233/225/130
f 246/212/130 247/226/130 240/212/130
f 253/221/130 254/228/130 247/226/130
f 43/227/43 45/236/45 254/228/130
f 17/223/17 212/222/130 213/229/130
f 212/222/130 219/224/130 220/231/130
f 219/224/130 226/196/130 227/232/130
f 226/208/130 233/225/130 234/212/130
f 240/212/130 241/234/130 234/212/130
f 247/226/130 248/235/130 241/234/130
f 254/228/130 255/237/130 248/235/130
f 45/236/45 47/251/47 255/237/130
f 213/229/130 214/239/130 13/238/13
f 220/231/130 221/240/130 214/239/130
f 227/232/130 228/215/130 221/240/130
f 234/212/130 235/242/130 228/212/130
f 234/212/130 241/234/130 242/241/130
f 241/234/130 248/235/130 249/243/130
f 248/235/130 255/237/130 256/244/130
f 255/237/130 47/251/47 49/245/49
f 214/239/130 215/247/130 11/246/11
f 221/240/130 222/230/130 215/247/130
f 228/215/130 229/256/130 222/230/130
f 235/242/130 236/250/130 229/248/130
f 235/242/130 242/241/130 243/249/130
f 242/241/130 249/243/130 250/251/130
f 249/243/130 256/244/130 257/252/130
f 256/244/130 49/245/49 51/253/51
f 215/247/130 216/255/130 9/254/9
f 222/230/130 223/257/130 216/255/130
f 229/256/130 230/266/130 223/257/130
f 236/250/130 237/260/130 230/258/130
f 236/250/130 243/249/130 244/259/130
f 243/249/130 250/251/130 251/261/130
f 250/251/130 257/252/130 258/262/130
f 257/252/130 51/253/51 53/263/53
f 216/255/130 5/265/5 7/264/7
f 223/257/130 3/267/3 5/265/5
f 230/266/130 1/274/1 3/267/3
f 237/260/130 63/270/63 1/268/1
f 237/260/130 244/259/130 61/269/61
f 244/259/130 251/261/130 59/271/59
f 251/261/130 258/262/130 57/272/57
f 258/262/130 53/263/53 55/273/55
f 30/30/30 290/28/129 273/30/129
f 10/10/10 271/149/129 12/12/12
f 54/54/54 269/148/129 56/56/56
f 36/36/36 267/136/129 38/38/38
f 18/18/18 265/20/129 20/20/20
f 62/62/62 263/64/129 64/64/64
f 46/46/46 284/146/129 260/132/129
f 26/26/26 290/28/129 28/28/28
f 10/10/10 282/144/129 289/10/129
f 52/52/52 288/54/129 54/54/54
f 36/36/36 280/143/129 287/147/129
f 16/16/16 286/18/129 18/18/18
f 62/62/62 278/141/129 285/62/129
f 44/44/44 277/140/129 284/146/129
f 24/24/24 283/145/129 26/26/26
f 6/6/6 282/144/129 8/8/8
f 52/52/52 274/139/129 281/52/129
f 32/32/32 280/143/129 34/34/34
f 14/14/14 279/142/129 16/16/16
f 60/60/60 268/137/129 278/141/129
f 40/40/40 277/140/129 42/42/42
f 22/22/22 276/24/129 24/24/24
f 4/4/4 275/6/129 6/6/6
f 48/48/48 274/139/129 50/50/50
f 32/32/32 273/30/129 272/138/129
f 14/14/14 271/149/129 270/14/129
f 58/58/58 269/148/129 268/137/129
f 38/38/38 266/40/129 40/40/40
f 20/20/20 264/135/129 22/22/22
f 64/64/64 262/134/129 2/134/2
f 4/4/4 262/1/129 261/4/129
f 46/46/46 259/133/129 48/48/48
f 1/274/1 291/129/131 3/267/3
f 291/129/131 5/265/5 3/267/3
f 292/127/132 7/264/7 5/265/5
f 7/264/7 294/123/134 9/254/9
f 294/123/134 11/246/11 9/254/9
f 295/120/135 13/238/13 11/246/11
f 296/118/136 15/230/15 13/238/13
f 15/230/15 298/115/138 17/223/17
f 298/115/138 19/215/19 17/223/17
f 299/113/139 21/198/21 19/215/19
f 21/198/21 301/109/141 23/196/23
f 301/109/141 25/199/25 23/196/23
f 302/107/142 27/201/27 25/199/25
f 303/104/143 29/203/29 27/201/27
f 304/102/144 31/207/31 29/203/29
f 305/101/145 33/206/33 31/207/31
f 33/206/33 307/97/147 35/208/35
f 307/97/147 37/210/37 35/208/35
f 37/210/37 309/93/149 39/212/39
f 39/212/39 310/91/150 41/220/41
f 310/91/150 43/227/43 41/220/41
f 311/88/151 45/236/45 43/227/43
f 45/236/45 313/85/153 47/251/47
f 313/85/153 49/245/49 47/251/47
f 49/245/49 315/81/155 51/253/51
f 315/81/155 53/263/53 51/253/51
f 53/263/53 317/77/157 55/273/55
f 55/273/55 318/75/158 57/272/57
f 318/75/158 59/271/59 57/272/57
f 59/271/59 320/70/160 61/269/61
f 61/269/61 321/68/161 63/270/63
f 321/68/161 1/268/1 63/270/63
f 2/1/2 4/4/4 67/2/67
f 4/4/4 6/6/6 69/5/69
f 6/6/6 8/8/8 71/7/71
f 8/8/8 10/10/10 73/9/73
f 10/10/10 12/12/12 75/11/75
f 12/12/12 14/14/14 77/13/77
f 14/14/14 16/16/16 79/15/79
f 16/16/16 18/18/18 81/17/81
f 18/18/18 20/20/20 83/19/83
f 20/20/20 22/22/22 85/21/85
f 22/22/22 24/24/24 87/23/87
f 24/24/24 26/26/26 89/25/89
f 26/26/26 28/28/28 91/27/91
f 28/28/28 30/30/30 93/29/93
f 30/30/30 32/32/32 95/31/95
f 32/32/32 34/34/34 97/33/97
f 34/34/34 36/36/36 99/35/99
f 36/36/36 38/38/38 101/37/101
f 38/38/38 40/40/40 103/39/103
f 40/40/40 42/42/42 105/41/105
f 42/42/42 44/44/44 107/43/107
f 44/44/44 46/46/46 109/45/109
f 46/46/46 48/48/48 111/47/111
f 48/48/48 50/50/50 113/49/113
f 50/50/50 52/52/52 115/51/115
f 52/52/52 54/54/54 117/53/117
f 54/54/54 56/56/56 119/55/119
f 56/56/56 58/58/58 121/57/121
f 58/58/58 60/60/60 123/59/123
f 60/60/60 62/62/62 125/61/125
f 62/62/62 64/64/64 127/63/127
f 64/64/64 2/134/2 66/65/66
f 128/66/128 65/69/65 322/67/162
f 127/63/127 66/65/66 65/69/65
f 320/70/160 126/71/126 128/66/128
f 125/61/125 127/63/127 128/66/128
f 319/72/159 124/73/124 126/71/126
f 123/59/123 125/61/125 126/71/126
f 122/74/122 124/73/124 319/72/159
f 121/57/121 123/59/123 124/73/124
f 120/76/120 122/74/122 318/75/158
f 119/55/119 121/57/121 122/74/122
f 118/78/118 120/76/120 317/77/157
f 117/53/117 119/55/119 120/76/120
f 116/80/116 118/78/118 316/79/156
f 115/51/115 117/53/117 118/78/118
f 314/82/154 114/83/114 116/80/116
f 113/49/113 115/51/115 116/80/116
f 112/84/112 114/83/114 314/82/154
f 111/47/111 113/49/113 114/83/114
f 312/86/152 110/87/110 112/84/112
f 109/45/109 111/47/111 112/84/112
f 311/88/151 108/89/108 110/87/110
f 107/43/107 109/45/109 110/87/110
f 106/90/106 108/89/108 311/88/151
f 105/41/105 107/43/107 108/89/108
f 104/92/104 106/90/106 310/91/150
f 103/39/103 105/41/105 106/90/106
f 102/94/102 104/92/104 309/93/149
f 101/37/101 103/39/103 104/92/104
f 100/96/100 102/94/102 308/95/148
f 99/35/99 101/37/101 102/94/102
f 306/98/146 98/99/98 100/96/100
f 97/33/97 99/35/99 100/96/100
f 96/100/96 98/99/98 306/98/146
f 95/31/95 97/33/97 98/99/98
f 304/102/144 94/103/94 96/100/96
f 93/29/93 95/31/95 96/100/96
f 303/104/143 92/105/92 94/103/94
f 91/27/91 93/29/93 94/103/94
f 90/106/90 92/105/92 303/104/143
f 89/25/89 91/27/91 92/105/92
f 88/108/88 90/106/90 302/107/142
f 87/23/87 89/25/89 90/106/90
f 86/110/86 88/108/88 301/109/141
f 85/21/85 87/23/87 88/108/88
f 84/112/84 86/110/86 300/111/140
f 83/19/83 85/21/85 86/110/86
f 82/114/82 84/112/84 299/113/139
f 81/17/81 83/19/83 84/112/84
f 80/116/80 82/114/82 298/115/138
f 79/15/79 81/17/81 82/114/82
f 296/118/136 78/119/78 80/116/80
f 77/13/77 79/15/79 80/116/80
f 295/120/135 76/121/76 78/119/78
f 75/11/75 77/13/77 78/119/78
f 74/122/74 76/121/76 295/120/135
f 73/9/73 75/11/75 76/121/76
f 72/124/72 74/122/74 294/123/134
f 71/7/71 73/9/73 74/122/74
f 70/126/70 72/124/72 293/125/133
f 69/5/69 71/7/71 72/124/72
f 68/128/68 70/126/70 292/127/132
f 67/2/67 69/5/69 70/126/70
f 322/130/162 65/131/65 68/128/68
f 66/3/66 67/2/67 68/128/68
f 260/132/129 151/46/129 152/48/129
f 262/1/129 129/1/129 130/4/129
f 263/64/129 160/64/129 129/134/129
f 264/135/129 265/20/129 138/20/129
f 267/136/129 147/38/129 148/40/129
f 268/137/129 269/148/129 156/56/129
f 270/14/129 271/149/129 134/12/129
f 273/30/129 143/30/129 144/32/129
f 259/133/129 152/48/129 153/50/129
f 275/6/129 261/4/129 130/4/129
f 264/135/129 139/22/129 140/24/129
f 266/40/129 148/40/129 149/42/129
f 268/137/129 157/58/129 158/60/129
f 270/14/129 135/14/129 136/16/129
f 272/138/129 144/32/129 145/34/129
f 274/139/129 153/50/129 154/52/129
f 275/6/129 131/6/129 132/8/129
f 276/24/129 140/24/129 141/26/129
f 277/140/129 149/42/129 150/44/129
f 285/62/129 278/141/129 158/60/129
f 279/142/129 136/16/129 137/18/129
f 280/143/129 145/34/129 146/36/129
f 288/54/129 281/52/129 154/52/129
f 289/10/129 282/144/129 132/8/129
f 283/145/129 141/26/129 142/28/129
f 260/132/129 284/146/129 150/44/129
f 285/62/129 159/62/129 160/64/129
f 286/18/129 137/18/129 138/20/129
f 287/147/129 146/36/129 147/38/129
f 288/54/129 155/54/129 156/56/129
f 289/10/129 133/10/129 134/12/129
f 273/30/129 290/28/129 142/28/129
f 156/56/129 155/54/129 161/150/129
f 155/54/129 154/52/129 168/151/129
f 154/52/129 153/50/129 175/152/129
f 153/50/129 152/48/129 182/153/129
f 151/46/129 189/154/129 182/153/129
f 150/44/129 196/155/129 189/154/129
f 149/42/129 203/156/129 196/155/129
f 148/40/129 147/38/129 203/156/129
f 157/58/129 161/150/129 162/157/129
f 161/150/129 168/151/129 169/158/129
f 168/151/129 175/152/129 176/159/129
f 175/152/129 182/153/129 183/160/129
f 189/154/129 190/161/129 183/160/129
f 196/155/129 197/40/129 190/161/129
f 203/156/129 204/162/129 197/40/129
f 147/38/129 146/36/129 204/162/129
f 158/60/129 162/157/129 163/163/129
f 162/157/129 169/158/129 170/164/129
f 169/158/129 176/159/129 177/44/129
f 176/159/129 183/160/129 184/165/129
f 190/161/129 191/40/129 184/165/129
f 197/40/129 198/166/129 191/40/129
f 204/162/129 205/167/129 198/166/129
f 146/36/129 145/34/129 205/167/129
f 159/62/129 163/163/129 164/168/129
f 163/163/129 170/164/129 171/169/129
f 170/164/129 177/44/129 178/170/129
f 177/44/129 184/165/129 185/40/129
f 191/40/129 192/171/129 185/40/129
f 198/166/129 199/172/129 192/171/129
f 205/167/129 206/173/129 199/172/129
f 145/34/129 144/32/129 206/173/129
f 164/168/129 165/174/129 129/134/129
f 171/169/129 172/175/129 165/174/129
f 178/170/129 179/40/129 172/175/129
f 185/40/129 186/176/129 179/40/129
f 185/40/129 192/171/129 193/36/129
f 192/171/129 199/172/129 200/177/129
f 199/172/129 206/173/129 207/178/129
f 206/173/129 144/32/129 143/30/129
f 165/179/129 166/181/129 130/4/129
f 172/180/129 173/16/129 166/181/129
f 179/20/129 180/183/129 173/16/129
f 186/182/129 187/185/129 180/183/129
f 186/182/129 193/24/129 194/184/129
f 193/24/129 200/186/129 201/24/129
f 200/186/129 207/188/129 208/187/129
f 207/188/129 143/30/129 142/28/129
f 166/181/129 167/189/129 131/6/129
f 173/16/129 174/190/129 167/189/129
f 180/183/129 181/191/129 174/190/129
f 187/185/129 188/193/129 181/191/129
f 187/185/129 194/184/129 195/192/129
f 194/184/129 201/24/129 202/194/129
f 201/24/129 208/187/129 209/195/129
f 208/187/129 142/28/129 141/26/129
f 167/189/129 133/10/129 132/8/129
f 174/190/129 134/12/129 133/10/129
f 181/191/129 135/14/129 134/12/129
f 188/193/129 136/16/129 135/14/129
f 188/193/129 195/192/129 137/18/129
f 195/192/129 202/194/129 138/20/129
f 202/194/129 209/195/129 139/22/129
f 209/195/129 141/26/129 140/24/129
f 30/30/30 28/28/28 290/28/129
f 10/10/10 289/10/129 271/149/129
f 54/54/54 288/54/129 269/148/129
f 36/36/36 287/147/129 267/136/129
f 18/18/18 286/18/129 265/20/129
f 62/62/62 285/62/129 263/64/129
f 46/46/46 44/44/44 284/146/129
f 26/26/26 283/145/129 290/28/129
f 10/10/10 8/8/8 282/144/129
f 52/52/52 281/52/129 288/54/129
f 36/36/36 34/34/34 280/143/129
f 16/16/16 279/142/129 286/18/129
f 62/62/62 60/60/60 278/141/129
f 44/44/44 42/42/42 277/140/129
f 24/24/24 276/24/129 283/145/129
f 6/6/6 275/6/129 282/144/129
f 52/52/52 50/50/50 274/139/129
f 32/32/32 272/138/129 280/143/129
f 14/14/14 270/14/129 279/142/129
f 60/60/60 58/58/58 268/137/129
f 40/40/40 266/40/129 277/140/129
f 22/22/22 264/135/129 276/24/129
f 4/4/4 261/4/129 275/6/129
f 48/48/48 259/133/129 274/139/129
f 32/32/32 30/30/30 273/30/129
f 14/14/14 12/12/12 271/149/129
f 58/58/58 56/56/56 269/148/129
f 38/38/38 267/136/129 266/40/129
f 20/20/20 265/20/129 264/135/129
f 64/64/64 263/64/129 262/134/129
f 4/4/4 2/1/2 262/1/129
f 46/46/46 260/132/129 259/133/129
f 1/274/1 322/130/162 291/129/131
f 291/129/131 292/127/132 5/265/5
f 292/127/132 293/125/133 7/264/7
f 7/264/7 293/125/133 294/123/134
f 294/123/134 295/120/135 11/246/11
f 295/120/135 296/118/136 13/238/13
f 296/118/136 297/117/137 15/230/15
f 15/230/15 297/117/137 298/115/138
f 298/115/138 299/113/139 19/215/19
f 299/113/139 300/111/140 21/198/21
f 21/198/21 300/111/140 301/109/141
f 301/109/141 302/107/142 25/199/25
f 302/107/142 303/104/143 27/201/27
f 303/104/143 304/102/144 29/203/29
f 304/102/144 305/101/145 31/207/31
f 305/101/145 306/98/146 33/206/33
f 33/206/33 306/98/146 307/97/147
f 307/97/147 308/95/148 37/210/37
f 37/210/37 308/95/148 309/93/149
f 39/212/39 309/93/149 310/91/150
f 310/91/150 311/88/151 43/227/43
f 311/88/151 312/86/152 45/236/45
f 45/236/45 312/86/152 313/85/153
f 313/85/153 314/82/154 49/245/49
f 49/245/49 314/82/154 315/81/155
f 315/81/155 316/79/156 53/263/53
f 53/263/53 316/79/156 317/77/157
f 55/273/55 317/77/157 318/75/158
f 318/75/158 319/72/159 59/271/59
f 59/271/59 319/72/159 320/70/160
f 61/269/61 320/70/160 321/68/161
f 321/68/161 322/67/162 1/268/1
