# Blender 4.4.3
# www.blender.org
mtllib sphere.mtl
o Sphere
v 0.000000 0.831470 -0.555570
v 0.000000 0.555570 -0.831470
v 0.000000 0.195090 -0.980785
v 0.000000 0.000000 -1.000000
v 0.000000 -0.195090 -0.980785
v 0.000000 -0.555570 -0.831470
v 0.038060 0.980785 -0.191342
v 0.074658 0.923880 -0.375330
v 0.108386 0.831470 -0.544895
v 0.137950 0.707107 -0.693520
v 0.162212 0.555570 -0.815493
v 0.180240 0.382683 -0.906127
v 0.191342 0.195090 -0.961940
v 0.195090 0.000000 -0.980785
v 0.191342 -0.195090 -0.961940
v 0.180240 -0.382683 -0.906127
v 0.162212 -0.555570 -0.815493
v 0.137950 -0.707107 -0.693520
v 0.108386 -0.831470 -0.544895
v 0.074658 -0.923880 -0.375330
v 0.038060 -0.980785 -0.191342
v 0.074658 0.980785 -0.180240
v 0.146447 0.923880 -0.353553
v 0.212608 0.831470 -0.513280
v 0.270598 0.707107 -0.653281
v 0.318190 0.555570 -0.768178
v 0.353553 0.382683 -0.853553
v 0.375330 0.195090 -0.906127
v 0.382683 0.000000 -0.923879
v 0.375330 -0.195090 -0.906127
v 0.353553 -0.382683 -0.853553
v 0.318190 -0.555570 -0.768178
v 0.270598 -0.707107 -0.653281
v 0.212608 -0.831470 -0.513280
v 0.146447 -0.923880 -0.353553
v 0.074658 -0.980785 -0.180240
v 0.108386 0.980785 -0.162212
v 0.212608 0.923880 -0.318190
v 0.308658 0.831470 -0.461940
v 0.392847 0.707107 -0.587938
v 0.461940 0.555570 -0.691342
v 0.513280 0.382683 -0.768178
v 0.544895 0.195090 -0.815493
v 0.555570 0.000000 -0.831469
v 0.544895 -0.195090 -0.815493
v 0.513280 -0.382683 -0.768178
v 0.461940 -0.555570 -0.691342
v 0.392847 -0.707107 -0.587938
v 0.308658 -0.831470 -0.461940
v 0.212608 -0.923880 -0.318190
v 0.108386 -0.980785 -0.162212
v 0.137950 0.980785 -0.137950
v 0.270598 0.923880 -0.270598
v 0.392847 0.831470 -0.392847
v 0.500000 0.707107 -0.500000
v 0.587938 0.555570 -0.587938
v 0.653281 0.382683 -0.653281
v 0.693520 0.195090 -0.693520
v 0.707107 0.000000 -0.707107
v 0.693520 -0.195090 -0.693520
v 0.653281 -0.382683 -0.653281
v 0.587938 -0.555570 -0.587938
v 0.500000 -0.707107 -0.500000
v 0.392847 -0.831470 -0.392847
v 0.270598 -0.923880 -0.270598
v 0.137950 -0.980785 -0.137950
v 0.162212 0.980785 -0.108386
v 0.318190 0.923880 -0.212608
v 0.461940 0.831470 -0.308658
v 0.587938 0.707107 -0.392847
v 0.691342 0.555570 -0.461940
v 0.768178 0.382683 -0.513280
v 0.815493 0.195090 -0.544895
v 0.831470 0.000000 -0.555570
v 0.815493 -0.195090 -0.544895
v 0.768178 -0.382683 -0.513280
v 0.691342 -0.555570 -0.461940
v 0.587938 -0.707107 -0.392847
v 0.461940 -0.831470 -0.308658
v 0.318190 -0.923880 -0.212608
v 0.162212 -0.980785 -0.108386
v 0.000000 1.000000 0.000000
v 0.180240 0.980785 -0.074658
v 0.353553 0.923880 -0.146447
v 0.513280 0.831470 -0.212607
v 0.653281 0.707107 -0.270598
v 0.768178 0.555570 -0.318190
v 0.853553 0.382683 -0.353553
v 0.906127 0.195090 -0.375330
v 0.923879 0.000000 -0.382683
v 0.906127 -0.195090 -0.375330
v 0.853553 -0.382683 -0.353553
v 0.768178 -0.555570 -0.318190
v 0.653281 -0.707107 -0.270598
v 0.513280 -0.831470 -0.212607
v 0.353553 -0.923880 -0.146447
v 0.180240 -0.980785 -0.074658
v 0.191342 0.980785 -0.038060
v 0.375330 0.923880 -0.074658
v 0.544895 0.831470 -0.108386
v 0.693520 0.707107 -0.137950
v 0.815493 0.555570 -0.162212
v 0.906127 0.382683 -0.180240
v 0.961940 0.195090 -0.191342
v 0.980785 0.000000 -0.195090
v 0.961940 -0.195090 -0.191342
v 0.906127 -0.382683 -0.180240
v 0.815493 -0.555570 -0.162212
v 0.693520 -0.707107 -0.137950
v 0.544895 -0.831470 -0.108386
v 0.375330 -0.923880 -0.074658
v 0.191342 -0.980785 -0.038060
v 0.195090 0.980785 0.000000
v 0.382683 0.923880 0.000000
v 0.555570 0.831470 0.000000
v 0.707107 0.707107 -0.000000
v 0.831469 0.555570 0.000000
v 0.923879 0.382683 -0.000000
v 0.980785 0.195090 0.000000
v 1.000000 0.000000 0.000000
v 0.980785 -0.195090 0.000000
v 0.923879 -0.382683 -0.000000
v 0.831469 -0.555570 0.000000
v 0.707107 -0.707107 -0.000000
v 0.555570 -0.831470 0.000000
v 0.382683 -0.923880 0.000000
v 0.195090 -0.980785 0.000000
v 0.191342 0.980785 0.038060
v 0.375330 0.923880 0.074658
v 0.544895 0.831470 0.108386
v 0.693520 0.707107 0.137950
v 0.815493 0.555570 0.162212
v 0.906127 0.382683 0.180240
v 0.961940 0.195090 0.191342
v 0.980785 0.000000 0.195090
v 0.961940 -0.195090 0.191342
v 0.906127 -0.382683 0.180240
v 0.815493 -0.555570 0.162212
v 0.693520 -0.707107 0.137950
v 0.544895 -0.831470 0.108386
v 0.375330 -0.923880 0.074658
v 0.191342 -0.980785 0.038060
v 0.180240 0.980785 0.074658
v 0.353553 0.923880 0.146447
v 0.513280 0.831470 0.212608
v 0.653281 0.707107 0.270598
v 0.768178 0.555570 0.318190
v 0.853553 0.382683 0.353553
v 0.906127 0.195090 0.375330
v 0.923879 0.000000 0.382683
v 0.906127 -0.195090 0.375330
v 0.853553 -0.382683 0.353553
v 0.768178 -0.555570 0.318190
v 0.653281 -0.707107 0.270598
v 0.513280 -0.831470 0.212608
v 0.353553 -0.923880 0.146447
v 0.180240 -0.980785 0.074658
v 0.162212 0.980785 0.108386
v 0.318190 0.923880 0.212608
v 0.461940 0.831470 0.308658
v 0.587938 0.707107 0.392847
v 0.691341 0.555570 0.461940
v 0.768178 0.382683 0.513280
v 0.815493 0.195090 0.544895
v 0.831469 0.000000 0.555570
v 0.815493 -0.195090 0.544895
v 0.768178 -0.382683 0.513280
v 0.691341 -0.555570 0.461940
v 0.587938 -0.707107 0.392847
v 0.461940 -0.831470 0.308658
v 0.318190 -0.923880 0.212608
v 0.162212 -0.980785 0.108386
v 0.137950 0.980785 0.137950
v 0.270598 0.923880 0.270598
v 0.392847 0.831470 0.392847
v 0.500000 0.707107 0.500000
v 0.587938 0.555570 0.587938
v 0.653281 0.382683 0.653281
v 0.693520 0.195090 0.693520
v 0.707106 0.000000 0.707107
v 0.693520 -0.195090 0.693520
v 0.653281 -0.382683 0.653281
v 0.587938 -0.555570 0.587938
v 0.500000 -0.707107 0.500000
v 0.392847 -0.831470 0.392847
v 0.270598 -0.923880 0.270598
v 0.137950 -0.980785 0.137950
v 0.108386 0.980785 0.162212
v 0.212607 0.923880 0.318190
v 0.308658 0.831470 0.461940
v 0.392847 0.707107 0.587938
v 0.461940 0.555570 0.691342
v 0.513280 0.382683 0.768178
v 0.544895 0.195090 0.815493
v 0.555570 0.000000 0.831469
v 0.544895 -0.195090 0.815493
v 0.513280 -0.382683 0.768178
v 0.461940 -0.555570 0.691342
v 0.392847 -0.707107 0.587938
v 0.308658 -0.831470 0.461940
v 0.212607 -0.923880 0.318190
v 0.108386 -0.980785 0.162212
v 0.074658 0.980785 0.180240
v 0.146447 0.923880 0.353553
v 0.212607 0.831470 0.513280
v 0.270598 0.707107 0.653281
v 0.318189 0.555570 0.768178
v 0.353553 0.382683 0.853553
v 0.375330 0.195090 0.906127
v 0.382683 0.000000 0.923879
v 0.375330 -0.195090 0.906127
v 0.353553 -0.382683 0.853553
v 0.318189 -0.555570 0.768178
v 0.270598 -0.707107 0.653281
v 0.212607 -0.831470 0.513280
v 0.146447 -0.923880 0.353553
v 0.074658 -0.980785 0.180240
v 0.038060 0.980785 0.191342
v 0.074658 0.923880 0.375330
v 0.108386 0.831470 0.544895
v 0.137950 0.707107 0.693520
v 0.162212 0.555570 0.815493
v 0.180240 0.382683 0.906127
v 0.191342 0.195090 0.961939
v 0.195090 0.000000 0.980785
v 0.191342 -0.195090 0.961939
v 0.180240 -0.382683 0.906127
v 0.162212 -0.555570 0.815493
v 0.137950 -0.707107 0.693520
v 0.108386 -0.831470 0.544895
v 0.074658 -0.923880 0.375330
v 0.038060 -0.980785 0.191342
v -0.000000 0.980785 0.195090
v -0.000000 0.923880 0.382683
v -0.000000 0.831470 0.555570
v -0.000000 0.707107 0.707107
v -0.000000 0.555570 0.831469
v 0.000000 0.382683 0.923879
v -0.000000 0.195090 0.980785
v -0.000000 0.000000 0.999999
v -0.000000 -0.195090 0.980785
v 0.000000 -0.382683 0.923879
v -0.000000 -0.555570 0.831469
v -0.000000 -0.707107 0.707107
v -0.000000 -0.831470 0.555570
v -0.000000 -0.923880 0.382683
v -0.000000 -0.980785 0.195090
v -0.038060 0.980785 0.191342
v -0.074658 0.923880 0.375330
v -0.108386 0.831470 0.544895
v -0.137950 0.707107 0.693520
v -0.162212 0.555570 0.815493
v -0.180240 0.382683 0.906127
v -0.191342 0.195090 0.961939
v -0.195091 0.000000 0.980785
v -0.191342 -0.195090 0.961939
v -0.180240 -0.382683 0.906127
v -0.162212 -0.555570 0.815493
v -0.137950 -0.707107 0.693520
v -0.108386 -0.831470 0.544895
v -0.074658 -0.923880 0.375330
v -0.038060 -0.980785 0.191342
v -0.074658 0.980785 0.180240
v -0.146447 0.923880 0.353553
v -0.212608 0.831470 0.513280
v -0.270598 0.707107 0.653281
v -0.318190 0.555570 0.768177
v -0.353553 0.382683 0.853553
v -0.375330 0.195090 0.906127
v -0.382683 0.000000 0.923879
v -0.375330 -0.195090 0.906127
v -0.353553 -0.382683 0.853553
v -0.318190 -0.555570 0.768177
v -0.270598 -0.707107 0.653281
v -0.212608 -0.831470 0.513280
v -0.146447 -0.923880 0.353553
v -0.074658 -0.980785 0.180240
v -0.108386 0.980785 0.162212
v -0.212608 0.923880 0.318190
v -0.308658 0.831470 0.461939
v -0.392847 0.707107 0.587938
v -0.461940 0.555570 0.691341
v -0.513280 0.382683 0.768178
v -0.544895 0.195090 0.815493
v -0.555570 0.000000 0.831469
v -0.544895 -0.195090 0.815493
v -0.513280 -0.382683 0.768178
v -0.461940 -0.555570 0.691341
v -0.392847 -0.707107 0.587938
v -0.308658 -0.831470 0.461939
v -0.212608 -0.923880 0.318190
v -0.108386 -0.980785 0.162212
v -0.137950 0.980785 0.137950
v -0.270598 0.923880 0.270598
v -0.392847 0.831470 0.392847
v -0.500000 0.707107 0.500000
v -0.587938 0.555570 0.587937
v -0.653281 0.382683 0.653281
v -0.693520 0.195090 0.693520
v -0.707106 0.000000 0.707106
v -0.693520 -0.195090 0.693520
v -0.653281 -0.382683 0.653281
v -0.587938 -0.555570 0.587937
v -0.500000 -0.707107 0.500000
v -0.392847 -0.831470 0.392847
v -0.270598 -0.923880 0.270598
v -0.137950 -0.980785 0.137950
v 0.000000 -1.000000 0.000000
v -0.162212 0.980785 0.108386
v -0.318190 0.923880 0.212607
v -0.461940 0.831470 0.308658
v -0.587938 0.707107 0.392847
v -0.691341 0.555570 0.461939
v -0.768177 0.382683 0.513280
v -0.815493 0.195090 0.544895
v -0.831469 0.000000 0.555569
v -0.815493 -0.195090 0.544895
v -0.768177 -0.382683 0.513280
v -0.691341 -0.555570 0.461939
v -0.587938 -0.707107 0.392847
v -0.461940 -0.831470 0.308658
v -0.318190 -0.923880 0.212607
v -0.162212 -0.980785 0.108386
v -0.180240 0.980785 0.074658
v -0.353553 0.923880 0.146447
v -0.513280 0.831470 0.212607
v -0.653281 0.707107 0.270598
v -0.768177 0.555570 0.318189
v -0.853553 0.382683 0.353553
v -0.906127 0.195090 0.375330
v -0.923879 0.000000 0.382683
v -0.906127 -0.195090 0.375330
v -0.853553 -0.382683 0.353553
v -0.768177 -0.555570 0.318189
v -0.653281 -0.707107 0.270598
v -0.513280 -0.831470 0.212607
v -0.353553 -0.923880 0.146447
v -0.180240 -0.980785 0.074658
v -0.191342 0.980785 0.038060
v -0.375330 0.923880 0.074658
v -0.544895 0.831470 0.108386
v -0.693520 0.707107 0.137950
v -0.815493 0.555570 0.162211
v -0.906127 0.382683 0.180240
v -0.961939 0.195090 0.191341
v -0.980784 0.000000 0.195090
v -0.961939 -0.195090 0.191341
v -0.906127 -0.382683 0.180240
v -0.815493 -0.555570 0.162211
v -0.693520 -0.707107 0.137950
v -0.544895 -0.831470 0.108386
v -0.375330 -0.923880 0.074658
v -0.191342 -0.980785 0.038060
v -0.195090 0.980785 -0.000000
v -0.382683 0.923880 -0.000000
v -0.555570 0.831470 -0.000000
v -0.707107 0.707107 -0.000000
v -0.831469 0.555570 -0.000000
v -0.923879 0.382683 -0.000000
v -0.980785 0.195090 -0.000000
v -0.999999 0.000000 -0.000000
v -0.980785 -0.195090 -0.000000
v -0.923879 -0.382683 -0.000000
v -0.831469 -0.555570 -0.000000
v -0.707107 -0.707107 -0.000000
v -0.555570 -0.831470 -0.000000
v -0.382683 -0.923880 -0.000000
v -0.195090 -0.980785 -0.000000
v -0.191342 0.980785 -0.038060
v -0.375330 0.923880 -0.074658
v -0.544895 0.831470 -0.108386
v -0.693520 0.707107 -0.137950
v -0.815493 0.555570 -0.162212
v -0.906127 0.382683 -0.180240
v -0.961939 0.195090 -0.191342
v -0.980784 0.000000 -0.195091
v -0.961939 -0.195090 -0.191342
v -0.906127 -0.382683 -0.180240
v -0.815493 -0.555570 -0.162212
v -0.693520 -0.707107 -0.137950
v -0.544895 -0.831470 -0.108386
v -0.375330 -0.923880 -0.074658
v -0.191342 -0.980785 -0.038060
v -0.180240 0.980785 -0.074658
v -0.353553 0.923880 -0.146447
v -0.513279 0.831470 -0.212607
v -0.653281 0.707107 -0.270598
v -0.768177 0.555570 -0.318190
v -0.853553 0.382683 -0.353553
v -0.906127 0.195090 -0.375330
v -0.923878 0.000000 -0.382683
v -0.906127 -0.195090 -0.375330
v -0.853553 -0.382683 -0.353553
v -0.768177 -0.555570 -0.318190
v -0.653281 -0.707107 -0.270598
v -0.513279 -0.831470 -0.212607
v -0.353553 -0.923880 -0.146447
v -0.180240 -0.980785 -0.074658
v -0.162212 0.980785 -0.108386
v -0.318189 0.923880 -0.212607
v -0.461939 0.831470 -0.308658
v -0.587938 0.707107 -0.392847
v -0.691341 0.555570 -0.461940
v -0.768177 0.382683 -0.513280
v -0.815493 0.195090 -0.544895
v -0.831468 0.000000 -0.555570
v -0.815493 -0.195090 -0.544895
v -0.768177 -0.382683 -0.513280
v -0.691341 -0.555570 -0.461940
v -0.587938 -0.707107 -0.392847
v -0.461939 -0.831470 -0.308658
v -0.318189 -0.923880 -0.212607
v -0.162212 -0.980785 -0.108386
v -0.137950 0.980785 -0.137950
v -0.270598 0.923880 -0.270598
v -0.392847 0.831470 -0.392847
v -0.500000 0.707107 -0.500000
v -0.587937 0.555570 -0.587938
v -0.653281 0.382683 -0.653281
v -0.693519 0.195090 -0.693520
v -0.707106 0.000000 -0.707106
v -0.693519 -0.195090 -0.693520
v -0.653281 -0.382683 -0.653281
v -0.587937 -0.555570 -0.587938
v -0.500000 -0.707107 -0.500000
v -0.392847 -0.831470 -0.392847
v -0.270598 -0.923880 -0.270598
v -0.137950 -0.980785 -0.137950
v -0.108386 0.980785 -0.162212
v -0.212607 0.923880 -0.318190
v -0.308658 0.831470 -0.461939
v -0.392847 0.707107 -0.587938
v -0.461939 0.555570 -0.691341
v -0.513280 0.382683 -0.768177
v -0.544895 0.195090 -0.815493
v -0.555569 0.000000 -0.831469
v -0.544895 -0.195090 -0.815493
v -0.513280 -0.382683 -0.768177
v -0.461939 -0.555570 -0.691341
v -0.392847 -0.707107 -0.587938
v -0.308658 -0.831470 -0.461939
v -0.212607 -0.923880 -0.318190
v -0.108386 -0.980785 -0.162212
v -0.074658 0.980785 -0.180240
v -0.146446 0.923880 -0.353553
v -0.212607 0.831470 -0.513279
v -0.270598 0.707107 -0.653281
v -0.318189 0.555570 -0.768177
v -0.353553 0.382683 -0.853553
v -0.375330 0.195090 -0.906127
v -0.382683 0.000000 -0.923879
v -0.375330 -0.195090 -0.906127
v -0.353553 -0.382683 -0.853553
v -0.318189 -0.555570 -0.768177
v -0.270598 -0.707107 -0.653281
v -0.212607 -0.831470 -0.513279
v -0.146446 -0.923880 -0.353553
v -0.074658 -0.980785 -0.180240
v -0.038060 0.980785 -0.191342
v -0.074658 0.923880 -0.375330
v -0.108386 0.831470 -0.544895
v -0.137950 0.707107 -0.693520
v -0.162211 0.555570 -0.815493
v -0.180240 0.382683 -0.906127
v -0.191341 0.195090 -0.961939
v -0.195090 0.000000 -0.980784
v -0.191341 -0.195090 -0.961939
v -0.180240 -0.382683 -0.906127
v -0.162211 -0.555570 -0.815493
v -0.137950 -0.707107 -0.693520
v -0.108386 -0.831470 -0.544895
v -0.074658 -0.923880 -0.375330
v -0.038060 -0.980785 -0.191342
v 0.000000 0.980785 -0.195090
v 0.000000 0.923880 -0.382683
v 0.000000 0.707107 -0.707107
v 0.000000 0.382683 -0.923879
v 0.000000 -0.382683 -0.923879
v 0.000000 -0.707107 -0.707107
v 0.000000 -0.831470 -0.555570
v 0.000000 -0.923880 -0.382683
v 0.000000 -0.980785 -0.195090
vn -0.0000 0.8286 -0.5598
vn -0.0000 0.5528 -0.8333
vn -0.0000 0.1939 -0.9810
vn -0.0000 -0.0000 -1.0000
vn -0.0000 -0.1939 -0.9810
vn -0.0000 -0.5528 -0.8333
vn 0.0392 0.9796 -0.1971
vn 0.0757 0.9217 -0.3804
vn 0.1092 0.8286 -0.5490
vn 0.1385 0.7041 -0.6965
vn 0.1626 0.5528 -0.8173
vn 0.1804 0.3805 -0.9070
vn 0.1914 0.1939 -0.9622
vn 0.1951 -0.0000 -0.9808
vn 0.1914 -0.1939 -0.9622
vn 0.1804 -0.3805 -0.9070
vn 0.1626 -0.5528 -0.8173
vn 0.1385 -0.7041 -0.6965
vn 0.1092 -0.8286 -0.5490
vn 0.0757 -0.9217 -0.3804
vn 0.0392 -0.9796 -0.1971
vn 0.0769 0.9796 -0.1857
vn 0.1484 0.9217 -0.3584
vn 0.2142 0.8286 -0.5172
vn 0.2718 0.7041 -0.6561
vn 0.3189 0.5528 -0.7699
vn 0.3539 0.3805 -0.8544
vn 0.3754 0.1939 -0.9063
vn 0.3827 -0.0000 -0.9239
vn 0.3754 -0.1939 -0.9063
vn 0.3539 -0.3805 -0.8544
vn 0.3189 -0.5528 -0.7699
vn 0.2718 -0.7041 -0.6561
vn 0.2142 -0.8286 -0.5172
vn 0.1484 -0.9217 -0.3584
vn 0.0769 -0.9796 -0.1857
vn 0.1117 0.9796 -0.1671
vn 0.2155 0.9217 -0.3225
vn 0.3110 0.8286 -0.4654
vn 0.3945 0.7041 -0.5905
vn 0.4630 0.5528 -0.6929
vn 0.5138 0.3805 -0.7689
vn 0.5450 0.1939 -0.8157
vn 0.5556 -0.0000 -0.8315
vn 0.5450 -0.1939 -0.8157
vn 0.5138 -0.3805 -0.7689
vn 0.4630 -0.5528 -0.6929
vn 0.3945 -0.7041 -0.5905
vn 0.3110 -0.8286 -0.4654
vn 0.2155 -0.9217 -0.3225
vn 0.1117 -0.9796 -0.1671
vn 0.1421 0.9796 -0.1421
vn 0.2743 0.9217 -0.2743
vn 0.3958 0.8286 -0.3958
vn 0.5021 0.7041 -0.5021
vn 0.5893 0.5528 -0.5893
vn 0.6539 0.3805 -0.6539
vn 0.6937 0.1939 -0.6937
vn 0.7071 -0.0000 -0.7071
vn 0.6937 -0.1939 -0.6937
vn 0.6539 -0.3805 -0.6539
vn 0.5893 -0.5528 -0.5893
vn 0.5021 -0.7041 -0.5021
vn 0.3958 -0.8286 -0.3958
vn 0.2743 -0.9217 -0.2743
vn 0.1421 -0.9796 -0.1421
vn 0.1671 0.9796 -0.1117
vn 0.3225 0.9217 -0.2155
vn 0.4654 0.8286 -0.3110
vn 0.5905 0.7041 -0.3945
vn 0.6929 0.5528 -0.4630
vn 0.7689 0.3805 -0.5138
vn 0.8157 0.1939 -0.5450
vn 0.8315 -0.0000 -0.5556
vn 0.8157 -0.1939 -0.5450
vn 0.7689 -0.3805 -0.5138
vn 0.6929 -0.5528 -0.4630
vn 0.5905 -0.7041 -0.3945
vn 0.4654 -0.8286 -0.3110
vn 0.3225 -0.9217 -0.2155
vn 0.1671 -0.9796 -0.1117
vn -0.0000 1.0000 -0.0000
vn 0.1857 0.9796 -0.0769
vn 0.3584 0.9217 -0.1484
vn 0.5172 0.8286 -0.2142
vn 0.6561 0.7041 -0.2718
vn 0.7699 0.5528 -0.3189
vn 0.8544 0.3805 -0.3539
vn 0.9063 0.1939 -0.3754
vn 0.9239 -0.0000 -0.3827
vn 0.9063 -0.1939 -0.3754
vn 0.8544 -0.3805 -0.3539
vn 0.7699 -0.5528 -0.3189
vn 0.6561 -0.7041 -0.2718
vn 0.5172 -0.8286 -0.2142
vn 0.3584 -0.9217 -0.1484
vn 0.1857 -0.9796 -0.0769
vn 0.1971 0.9796 -0.0392
vn 0.3804 0.9217 -0.0757
vn 0.5490 0.8286 -0.1092
vn 0.6965 0.7041 -0.1385
vn 0.8173 0.5528 -0.1626
vn 0.9070 0.3805 -0.1804
vn 0.9622 0.1939 -0.1914
vn 0.9808 -0.0000 -0.1951
vn 0.9622 -0.1939 -0.1914
vn 0.9070 -0.3805 -0.1804
vn 0.8173 -0.5528 -0.1626
vn 0.6965 -0.7041 -0.1385
vn 0.5490 -0.8286 -0.1092
vn 0.3804 -0.9217 -0.0757
vn 0.1971 -0.9796 -0.0392
vn 0.2010 0.9796 -0.0000
vn 0.3879 0.9217 -0.0000
vn 0.5598 0.8286 -0.0000
vn 0.7101 0.7041 -0.0000
vn 0.8333 0.5528 -0.0000
vn 0.9248 0.3805 -0.0000
vn 0.9810 0.1939 -0.0000
vn 1.0000 -0.0000 -0.0000
vn 0.9810 -0.1939 -0.0000
vn 0.9248 -0.3805 -0.0000
vn 0.8333 -0.5528 -0.0000
vn 0.7101 -0.7041 -0.0000
vn 0.5598 -0.8286 -0.0000
vn 0.3879 -0.9217 -0.0000
vn 0.2010 -0.9796 -0.0000
vn 0.1971 0.9796 0.0392
vn 0.3804 0.9217 0.0757
vn 0.5490 0.8286 0.1092
vn 0.6965 0.7041 0.1385
vn 0.8173 0.5528 0.1626
vn 0.9070 0.3805 0.1804
vn 0.9622 0.1939 0.1914
vn 0.9808 -0.0000 0.1951
vn 0.9622 -0.1939 0.1914
vn 0.9070 -0.3805 0.1804
vn 0.8173 -0.5528 0.1626
vn 0.6965 -0.7041 0.1385
vn 0.5490 -0.8286 0.1092
vn 0.3804 -0.9217 0.0757
vn 0.1971 -0.9796 0.0392
vn 0.1857 0.9796 0.0769
vn 0.3584 0.9217 0.1484
vn 0.5172 0.8286 0.2142
vn 0.6561 0.7041 0.2718
vn 0.7699 0.5528 0.3189
vn 0.8544 0.3805 0.3539
vn 0.9063 0.1939 0.3754
vn 0.9239 -0.0000 0.3827
vn 0.9063 -0.1939 0.3754
vn 0.8544 -0.3805 0.3539
vn 0.7699 -0.5528 0.3189
vn 0.6561 -0.7041 0.2718
vn 0.5172 -0.8286 0.2142
vn 0.3584 -0.9217 0.1484
vn 0.1857 -0.9796 0.0769
vn 0.1671 0.9796 0.1117
vn 0.3225 0.9217 0.2155
vn 0.4654 0.8286 0.3110
vn 0.5905 0.7041 0.3945
vn 0.6929 0.5528 0.4630
vn 0.7689 0.3805 0.5138
vn 0.8157 0.1939 0.5450
vn 0.8315 -0.0000 0.5556
vn 0.8157 -0.1939 0.5450
vn 0.7689 -0.3805 0.5138
vn 0.6929 -0.5528 0.4630
vn 0.5905 -0.7041 0.3945
vn 0.4654 -0.8286 0.3110
vn 0.3225 -0.9217 0.2155
vn 0.1671 -0.9796 0.1117
vn 0.1421 0.9796 0.1421
vn 0.2743 0.9217 0.2743
vn 0.3958 0.8286 0.3958
vn 0.5021 0.7041 0.5021
vn 0.5893 0.5528 0.5893
vn 0.6539 0.3805 0.6539
vn 0.6937 0.1939 0.6937
vn 0.7071 -0.0000 0.7071
vn 0.6937 -0.1939 0.6937
vn 0.6539 -0.3805 0.6539
vn 0.5893 -0.5528 0.5893
vn 0.5021 -0.7041 0.5021
vn 0.3958 -0.8286 0.3958
vn 0.2743 -0.9217 0.2743
vn 0.1421 -0.9796 0.1421
vn 0.1117 0.9796 0.1671
vn 0.2155 0.9217 0.3225
vn 0.3110 0.8286 0.4654
vn 0.3945 0.7041 0.5905
vn 0.4630 0.5528 0.6929
vn 0.5138 0.3805 0.7689
vn 0.5450 0.1939 0.8157
vn 0.5556 -0.0000 0.8315
vn 0.5450 -0.1939 0.8157
vn 0.5138 -0.3805 0.7689
vn 0.4630 -0.5528 0.6929
vn 0.3945 -0.7041 0.5905
vn 0.3110 -0.8286 0.4654
vn 0.2155 -0.9217 0.3225
vn 0.1117 -0.9796 0.1671
vn 0.0769 0.9796 0.1857
vn 0.1484 0.9217 0.3584
vn 0.2142 0.8286 0.5172
vn 0.2718 0.7041 0.6561
vn 0.3189 0.5528 0.7699
vn 0.3539 0.3805 0.8544
vn 0.3754 0.1939 0.9063
vn 0.3827 -0.0000 0.9239
vn 0.3754 -0.1939 0.9063
vn 0.3539 -0.3805 0.8544
vn 0.3189 -0.5528 0.7699
vn 0.2718 -0.7041 0.6561
vn 0.2142 -0.8286 0.5172
vn 0.1484 -0.9217 0.3584
vn 0.0769 -0.9796 0.1857
vn 0.0392 0.9796 0.1971
vn 0.0757 0.9217 0.3804
vn 0.1092 0.8286 0.5490
vn 0.1385 0.7041 0.6965
vn 0.1626 0.5528 0.8173
vn 0.1804 0.3805 0.9070
vn 0.1914 0.1939 0.9622
vn 0.1951 -0.0000 0.9808
vn 0.1914 -0.1939 0.9622
vn 0.1804 -0.3805 0.9070
vn 0.1626 -0.5528 0.8173
vn 0.1385 -0.7041 0.6965
vn 0.1092 -0.8286 0.5490
vn 0.0757 -0.9217 0.3804
vn 0.0392 -0.9796 0.1971
vn -0.0000 0.9796 0.2010
vn -0.0000 0.9217 0.3879
vn -0.0000 0.8286 0.5598
vn -0.0000 0.7041 0.7101
vn -0.0000 0.5528 0.8333
vn -0.0000 0.3805 0.9248
vn -0.0000 0.1939 0.9810
vn -0.0000 -0.0000 1.0000
vn -0.0000 -0.1939 0.9810
vn -0.0000 -0.3805 0.9248
vn -0.0000 -0.5528 0.8333
vn -0.0000 -0.7041 0.7101
vn -0.0000 -0.8286 0.5598
vn -0.0000 -0.9217 0.3879
vn -0.0000 -0.9796 0.2010
vn -0.0392 0.9796 0.1971
vn -0.0757 0.9217 0.3804
vn -0.1092 0.8286 0.5490
vn -0.1385 0.7041 0.6965
vn -0.1626 0.5528 0.8173
vn -0.1804 0.3805 0.9070
vn -0.1914 0.1939 0.9622
vn -0.1951 -0.0000 0.9808
vn -0.1914 -0.1939 0.9622
vn -0.1804 -0.3805 0.9070
vn -0.1626 -0.5528 0.8173
vn -0.1385 -0.7041 0.6965
vn -0.1092 -0.8286 0.5490
vn -0.0757 -0.9217 0.3804
vn -0.0392 -0.9796 0.1971
vn -0.0769 0.9796 0.1857
vn -0.1484 0.9217 0.3584
vn -0.2142 0.8286 0.5172
vn -0.2718 0.7041 0.6561
vn -0.3189 0.5528 0.7699
vn -0.3539 0.3805 0.8544
vn -0.3754 0.1939 0.9063
vn -0.3827 -0.0000 0.9239
vn -0.3754 -0.1939 0.9063
vn -0.3539 -0.3805 0.8544
vn -0.3189 -0.5528 0.7699
vn -0.2718 -0.7041 0.6561
vn -0.2142 -0.8286 0.5172
vn -0.1484 -0.9217 0.3584
vn -0.0769 -0.9796 0.1857
vn -0.1117 0.9796 0.1671
vn -0.2155 0.9217 0.3225
vn -0.3110 0.8286 0.4654
vn -0.3945 0.7041 0.5905
vn -0.4630 0.5528 0.6929
vn -0.5138 0.3805 0.7689
vn -0.5450 0.1939 0.8157
vn -0.5556 -0.0000 0.8315
vn -0.5450 -0.1939 0.8157
vn -0.5138 -0.3805 0.7689
vn -0.4630 -0.5528 0.6929
vn -0.3945 -0.7041 0.5905
vn -0.3110 -0.8286 0.4654
vn -0.2155 -0.9217 0.3225
vn -0.1117 -0.9796 0.1671
vn -0.1421 0.9796 0.1421
vn -0.2743 0.9217 0.2743
vn -0.3958 0.8286 0.3958
vn -0.5021 0.7041 0.5021
vn -0.5893 0.5528 0.5893
vn -0.6539 0.3805 0.6539
vn -0.6937 0.1939 0.6937
vn -0.7071 -0.0000 0.7071
vn -0.6937 -0.1939 0.6937
vn -0.6539 -0.3805 0.6539
vn -0.5893 -0.5528 0.5893
vn -0.5021 -0.7041 0.5021
vn -0.3958 -0.8286 0.3958
vn -0.2743 -0.9217 0.2743
vn -0.1421 -0.9796 0.1421
vn -0.0000 -1.0000 -0.0000
vn -0.1671 0.9796 0.1117
vn -0.3225 0.9217 0.2155
vn -0.4654 0.8286 0.3110
vn -0.5905 0.7041 0.3945
vn -0.6929 0.5528 0.4630
vn -0.7689 0.3805 0.5138
vn -0.8157 0.1939 0.5450
vn -0.8315 -0.0000 0.5556
vn -0.8157 -0.1939 0.5450
vn -0.7689 -0.3805 0.5138
vn -0.6929 -0.5528 0.4630
vn -0.5905 -0.7041 0.3945
vn -0.4654 -0.8286 0.3110
vn -0.3225 -0.9217 0.2155
vn -0.1671 -0.9796 0.1117
vn -0.1857 0.9796 0.0769
vn -0.3584 0.9217 0.1484
vn -0.5172 0.8286 0.2142
vn -0.6561 0.7041 0.2718
vn -0.7699 0.5528 0.3189
vn -0.8544 0.3805 0.3539
vn -0.9063 0.1939 0.3754
vn -0.9239 -0.0000 0.3827
vn -0.9063 -0.1939 0.3754
vn -0.8544 -0.3805 0.3539
vn -0.7699 -0.5528 0.3189
vn -0.6561 -0.7041 0.2718
vn -0.5172 -0.8286 0.2142
vn -0.3584 -0.9217 0.1484
vn -0.1857 -0.9796 0.0769
vn -0.1971 0.9796 0.0392
vn -0.3804 0.9217 0.0757
vn -0.5490 0.8286 0.1092
vn -0.6965 0.7041 0.1385
vn -0.8173 0.5528 0.1626
vn -0.9070 0.3805 0.1804
vn -0.9622 0.1939 0.1914
vn -0.9808 -0.0000 0.1951
vn -0.9622 -0.1939 0.1914
vn -0.9070 -0.3805 0.1804
vn -0.8173 -0.5528 0.1626
vn -0.6965 -0.7041 0.1385
vn -0.5490 -0.8286 0.1092
vn -0.3804 -0.9217 0.0757
vn -0.1971 -0.9796 0.0392
vn -0.2010 0.9796 -0.0000
vn -0.3879 0.9217 -0.0000
vn -0.5598 0.8286 -0.0000
vn -0.7101 0.7041 -0.0000
vn -0.8333 0.5528 -0.0000
vn -0.9248 0.3805 -0.0000
vn -0.9810 0.1939 -0.0000
vn -1.0000 -0.0000 -0.0000
vn -0.9810 -0.1939 -0.0000
vn -0.9248 -0.3805 -0.0000
vn -0.8333 -0.5528 -0.0000
vn -0.7101 -0.7041 -0.0000
vn -0.5598 -0.8286 -0.0000
vn -0.3879 -0.9217 -0.0000
vn -0.2010 -0.9796 -0.0000
vn -0.1971 0.9796 -0.0392
vn -0.3804 0.9217 -0.0757
vn -0.5490 0.8286 -0.1092
vn -0.6965 0.7041 -0.1385
vn -0.8173 0.5528 -0.1626
vn -0.9070 0.3805 -0.1804
vn -0.9622 0.1939 -0.1914
vn -0.9808 -0.0000 -0.1951
vn -0.9622 -0.1939 -0.1914
vn -0.9070 -0.3805 -0.1804
vn -0.8173 -0.5528 -0.1626
vn -0.6965 -0.7041 -0.1385
vn -0.5490 -0.8286 -0.1092
vn -0.3804 -0.9217 -0.0757
vn -0.1971 -0.9796 -0.0392
vn -0.1857 0.9796 -0.0769
vn -0.3584 0.9217 -0.1484
vn -0.5172 0.8286 -0.2142
vn -0.6561 0.7041 -0.2718
vn -0.7699 0.5528 -0.3189
vn -0.8544 0.3805 -0.3539
vn -0.9063 0.1939 -0.3754
vn -0.9239 -0.0000 -0.3827
vn -0.9063 -0.1939 -0.3754
vn -0.8544 -0.3805 -0.3539
vn -0.7699 -0.5528 -0.3189
vn -0.6561 -0.7041 -0.2718
vn -0.5172 -0.8286 -0.2142
vn -0.3584 -0.9217 -0.1484
vn -0.1857 -0.9796 -0.0769
vn -0.1671 0.9796 -0.1117
vn -0.3225 0.9217 -0.2155
vn -0.4654 0.8286 -0.3110
vn -0.5905 0.7041 -0.3945
vn -0.6929 0.5528 -0.4630
vn -0.7689 0.3805 -0.5138
vn -0.8157 0.1939 -0.5450
vn -0.8315 -0.0000 -0.5556
vn -0.8157 -0.1939 -0.5450
vn -0.7689 -0.3805 -0.5138
vn -0.6929 -0.5528 -0.4630
vn -0.5905 -0.7041 -0.3945
vn -0.4654 -0.8286 -0.3110
vn -0.3225 -0.9217 -0.2155
vn -0.1671 -0.9796 -0.1117
vn -0.1421 0.9796 -0.1421
vn -0.2743 0.9217 -0.2743
vn -0.3958 0.8286 -0.3958
vn -0.5021 0.7041 -0.5021
vn -0.5893 0.5528 -0.5893
vn -0.6539 0.3805 -0.6539
vn -0.6937 0.1939 -0.6937
vn -0.7071 -0.0000 -0.7071
vn -0.6937 -0.1939 -0.6937
vn -0.6539 -0.3805 -0.6539
vn -0.5893 -0.5528 -0.5893
vn -0.5021 -0.7041 -0.5021
vn -0.3958 -0.8286 -0.3958
vn -0.2743 -0.9217 -0.2743
vn -0.1421 -0.9796 -0.1421
vn -0.1117 0.9796 -0.1671
vn -0.2155 0.9217 -0.3225
vn -0.3110 0.8286 -0.4654
vn -0.3945 0.7041 -0.5905
vn -0.4630 0.5528 -0.6929
vn -0.5138 0.3805 -0.7689
vn -0.5450 0.1939 -0.8157
vn -0.5556 -0.0000 -0.8315
vn -0.5450 -0.1939 -0.8157
vn -0.5138 -0.3805 -0.7689
vn -0.4630 -0.5528 -0.6929
vn -0.3945 -0.7041 -0.5905
vn -0.3110 -0.8286 -0.4654
vn -0.2155 -0.9217 -0.3225
vn -0.1117 -0.9796 -0.1671
vn -0.0769 0.9796 -0.1857
vn -0.1484 0.9217 -0.3584
vn -0.2142 0.8286 -0.5172
vn -0.2718 0.7041 -0.6561
vn -0.3189 0.5528 -0.7699
vn -0.3539 0.3805 -0.8544
vn -0.3754 0.1939 -0.9063
vn -0.3827 -0.0000 -0.9239
vn -0.3754 -0.1939 -0.9063
vn -0.3539 -0.3805 -0.8544
vn -0.3189 -0.5528 -0.7699
vn -0.2718 -0.7041 -0.6561
vn -0.2142 -0.8286 -0.5172
vn -0.1484 -0.9217 -0.3584
vn -0.0769 -0.9796 -0.1857
vn -0.0392 0.9796 -0.1971
vn -0.0757 0.9217 -0.3804
vn -0.1092 0.8286 -0.5490
vn -0.1385 0.7041 -0.6965
vn -0.1626 0.5528 -0.8173
vn -0.1804 0.3805 -0.9070
vn -0.1914 0.1939 -0.9622
vn -0.1951 -0.0000 -0.9808
vn -0.1914 -0.1939 -0.9622
vn -0.1804 -0.3805 -0.9070
vn -0.1626 -0.5528 -0.8173
vn -0.1385 -0.7041 -0.6965
vn -0.1092 -0.8286 -0.5490
vn -0.0757 -0.9217 -0.3804
vn -0.0392 -0.9796 -0.1971
vn -0.0000 0.9796 -0.2010
vn -0.0000 0.9217 -0.3879
vn -0.0000 0.7041 -0.7101
vn -0.0000 0.3805 -0.9248
vn -0.0000 -0.3805 -0.9248
vn -0.0000 -0.7041 -0.7101
vn -0.0000 -0.8286 -0.5598
vn -0.0000 -0.9217 -0.3879
vn -0.0000 -0.9796 -0.2010
vt 0.750000 0.750000
vt 0.718750 0.812500
vt 0.718750 0.750000
vt 0.750000 0.312500
vt 0.718750 0.250000
vt 0.750000 0.250000
vt 0.750000 0.687500
vt 0.718750 0.687500
vt 0.718750 0.187500
vt 0.750000 0.187500
vt 0.750000 0.625000
vt 0.718750 0.625000
vt 0.718750 0.125000
vt 0.750000 0.125000
vt 0.750000 0.562500
vt 0.718750 0.562500
vt 0.718750 0.062500
vt 0.750000 0.062500
vt 0.718750 0.500000
vt 0.750000 0.500000
vt 0.750000 0.937500
vt 0.734375 1.000000
vt 0.718750 0.937500
vt 0.734375 0.000000
vt 0.718750 0.437500
vt 0.750000 0.437500
vt 0.750000 0.875000
vt 0.718750 0.875000
vt 0.718750 0.375000
vt 0.750000 0.375000
vt 0.750000 0.812500
vt 0.718750 0.312500
vt 0.687500 0.812500
vt 0.687500 0.312500
vt 0.687500 0.750000
vt 0.687500 0.250000
vt 0.687500 0.687500
vt 0.687500 0.187500
vt 0.687500 0.625000
vt 0.687500 0.125000
vt 0.687500 0.562500
vt 0.687500 0.062500
vt 0.687500 0.500000
vt 0.703125 1.000000
vt 0.687500 0.937500
vt 0.703125 0.000000
vt 0.687500 0.437500
vt 0.687500 0.875000
vt 0.687500 0.375000
vt 0.656250 0.562500
vt 0.656250 0.062500
vt 0.656250 0.500000
vt 0.671875 1.000000
vt 0.656250 0.937500
vt 0.671875 0.000000
vt 0.656250 0.437500
vt 0.656250 0.875000
vt 0.656250 0.375000
vt 0.656250 0.812500
vt 0.656250 0.312500
vt 0.656250 0.750000
vt 0.656250 0.250000
vt 0.656250 0.687500
vt 0.656250 0.187500
vt 0.656250 0.625000
vt 0.656250 0.125000
vt 0.625000 0.375000
vt 0.625000 0.312500
vt 0.625000 0.750000
vt 0.625000 0.250000
vt 0.625000 0.687500
vt 0.625000 0.187500
vt 0.625000 0.625000
vt 0.625000 0.125000
vt 0.625000 0.562500
vt 0.625000 0.062500
vt 0.625000 0.500000
vt 0.640625 1.000000
vt 0.625000 0.937500
vt 0.640625 0.000000
vt 0.625000 0.437500
vt 0.625000 0.875000
vt 0.625000 0.812500
vt 0.593750 0.062500
vt 0.593750 0.562500
vt 0.593750 0.500000
vt 0.609375 1.000000
vt 0.593750 0.937500
vt 0.609375 0.000000
vt 0.593750 0.437500
vt 0.593750 0.875000
vt 0.593750 0.375000
vt 0.593750 0.812500
vt 0.593750 0.312500
vt 0.593750 0.750000
vt 0.593750 0.250000
vt 0.593750 0.687500
vt 0.593750 0.187500
vt 0.593750 0.625000
vt 0.593750 0.125000
vt 0.562500 0.750000
vt 0.562500 0.250000
vt 0.562500 0.687500
vt 0.562500 0.187500
vt 0.562500 0.625000
vt 0.562500 0.125000
vt 0.562500 0.562500
vt 0.562500 0.062500
vt 0.562500 0.500000
vt 0.578125 1.000000
vt 0.562500 0.937500
vt 0.578125 0.000000
vt 0.562500 0.437500
vt 0.562500 0.875000
vt 0.562500 0.375000
vt 0.562500 0.812500
vt 0.562500 0.312500
vt 0.531250 0.562500
vt 0.531250 0.500000
vt 0.546875 1.000000
vt 0.531250 0.937500
vt 0.546875 0.000000
vt 0.531250 0.062500
vt 0.531250 0.437500
vt 0.531250 0.875000
vt 0.531250 0.375000
vt 0.531250 0.812500
vt 0.531250 0.312500
vt 0.531250 0.750000
vt 0.531250 0.250000
vt 0.531250 0.687500
vt 0.531250 0.187500
vt 0.531250 0.625000
vt 0.531250 0.125000
vt 0.500000 0.250000
vt 0.500000 0.750000
vt 0.500000 0.687500
vt 0.500000 0.187500
vt 0.500000 0.625000
vt 0.500000 0.125000
vt 0.500000 0.562500
vt 0.500000 0.062500
vt 0.500000 0.500000
vt 0.515625 1.000000
vt 0.500000 0.937500
vt 0.515625 0.000000
vt 0.500000 0.437500
vt 0.500000 0.875000
vt 0.500000 0.375000
vt 0.500000 0.812500
vt 0.500000 0.312500
vt 0.484375 0.000000
vt 0.468750 0.062500
vt 0.468750 0.437500
vt 0.468750 0.875000
vt 0.468750 0.375000
vt 0.468750 0.812500
vt 0.468750 0.312500
vt 0.468750 0.750000
vt 0.468750 0.250000
vt 0.468750 0.687500
vt 0.468750 0.187500
vt 0.468750 0.625000
vt 0.468750 0.125000
vt 0.468750 0.562500
vt 0.468750 0.500000
vt 0.484375 1.000000
vt 0.468750 0.937500
vt 0.437500 0.250000
vt 0.437500 0.187500
vt 0.437500 0.625000
vt 0.437500 0.125000
vt 0.437500 0.562500
vt 0.437500 0.062500
vt 0.437500 0.500000
vt 0.453125 1.000000
vt 0.437500 0.937500
vt 0.453125 0.000000
vt 0.437500 0.437500
vt 0.437500 0.875000
vt 0.437500 0.375000
vt 0.437500 0.812500
vt 0.437500 0.312500
vt 0.437500 0.750000
vt 0.437500 0.687500
vt 0.406250 0.875000
vt 0.406250 0.375000
vt 0.406250 0.812500
vt 0.406250 0.312500
vt 0.406250 0.750000
vt 0.406250 0.250000
vt 0.406250 0.687500
vt 0.406250 0.187500
vt 0.406250 0.625000
vt 0.406250 0.125000
vt 0.406250 0.562500
vt 0.406250 0.062500
vt 0.406250 0.500000
vt 0.421875 1.000000
vt 0.406250 0.937500
vt 0.421875 0.000000
vt 0.406250 0.437500
vt 0.375000 0.625000
vt 0.375000 0.187500
vt 0.375000 0.125000
vt 0.375000 0.562500
vt 0.375000 0.062500
vt 0.375000 0.500000
vt 0.390625 1.000000
vt 0.375000 0.937500
vt 0.390625 0.000000
vt 0.375000 0.437500
vt 0.375000 0.875000
vt 0.375000 0.375000
vt 0.375000 0.812500
vt 0.375000 0.312500
vt 0.375000 0.750000
vt 0.375000 0.250000
vt 0.375000 0.687500
vt 0.343750 0.375000
vt 0.343750 0.875000
vt 0.343750 0.812500
vt 0.343750 0.312500
vt 0.343750 0.750000
vt 0.343750 0.250000
vt 0.343750 0.687500
vt 0.343750 0.187500
vt 0.343750 0.625000
vt 0.343750 0.125000
vt 0.343750 0.562500
vt 0.343750 0.062500
vt 0.343750 0.500000
vt 0.359375 1.000000
vt 0.343750 0.937500
vt 0.359375 0.000000
vt 0.343750 0.437500
vt 0.312500 0.125000
vt 0.312500 0.625000
vt 0.312500 0.562500
vt 0.312500 0.062500
vt 0.312500 0.500000
vt 0.328125 1.000000
vt 0.312500 0.937500
vt 0.328125 0.000000
vt 0.312500 0.437500
vt 0.312500 0.875000
vt 0.312500 0.375000
vt 0.312500 0.812500
vt 0.312500 0.312500
vt 0.312500 0.750000
vt 0.312500 0.250000
vt 0.312500 0.687500
vt 0.312500 0.187500
vt 0.281250 0.812500
vt 0.281250 0.375000
vt 0.281250 0.312500
vt 0.281250 0.750000
vt 0.281250 0.250000
vt 0.281250 0.687500
vt 0.281250 0.187500
vt 0.281250 0.625000
vt 0.281250 0.125000
vt 0.281250 0.562500
vt 0.281250 0.062500
vt 0.281250 0.500000
vt 0.296875 1.000000
vt 0.281250 0.937500
vt 0.296875 0.000000
vt 0.281250 0.437500
vt 0.281250 0.875000
vt 0.250000 0.625000
vt 0.250000 0.562500
vt 0.250000 0.125000
vt 0.250000 0.062500
vt 0.250000 0.500000
vt 0.265625 1.000000
vt 0.250000 0.937500
vt 0.265625 0.000000
vt 0.250000 0.437500
vt 0.250000 0.875000
vt 0.250000 0.375000
vt 0.250000 0.812500
vt 0.250000 0.312500
vt 0.250000 0.750000
vt 0.250000 0.250000
vt 0.250000 0.687500
vt 0.250000 0.187500
vt 0.218750 0.375000
vt 0.218750 0.312500
vt 0.218750 0.750000
vt 0.218750 0.250000
vt 0.218750 0.687500
vt 0.218750 0.187500
vt 0.218750 0.625000
vt 0.218750 0.125000
vt 0.218750 0.562500
vt 0.218750 0.062500
vt 0.218750 0.500000
vt 0.234375 1.000000
vt 0.218750 0.937500
vt 0.234375 0.000000
vt 0.218750 0.437500
vt 0.218750 0.875000
vt 0.218750 0.812500
vt 0.187500 0.062500
vt 0.187500 0.562500
vt 0.187500 0.500000
vt 0.203125 1.000000
vt 0.187500 0.937500
vt 0.203125 0.000000
vt 0.187500 0.437500
vt 0.187500 0.875000
vt 0.187500 0.375000
vt 0.187500 0.812500
vt 0.187500 0.312500
vt 0.187500 0.750000
vt 0.187500 0.250000
vt 0.187500 0.687500
vt 0.187500 0.187500
vt 0.187500 0.625000
vt 0.187500 0.125000
vt 0.156250 0.250000
vt 0.156250 0.750000
vt 0.156250 0.687500
vt 0.156250 0.187500
vt 0.156250 0.625000
vt 0.156250 0.125000
vt 0.156250 0.562500
vt 0.156250 0.062500
vt 0.156250 0.500000
vt 0.171875 1.000000
vt 0.156250 0.937500
vt 0.171875 0.000000
vt 0.156250 0.437500
vt 0.156250 0.875000
vt 0.156250 0.375000
vt 0.156250 0.812500
vt 0.156250 0.312500
vt 0.140625 1.000000
vt 0.125000 0.937500
vt 0.140625 0.000000
vt 0.125000 0.062500
vt 0.125000 0.437500
vt 0.125000 0.875000
vt 0.125000 0.375000
vt 0.125000 0.812500
vt 0.125000 0.312500
vt 0.125000 0.750000
vt 0.125000 0.250000
vt 0.125000 0.687500
vt 0.125000 0.187500
vt 0.125000 0.625000
vt 0.125000 0.125000
vt 0.125000 0.562500
vt 0.125000 0.500000
vt 0.093750 0.750000
vt 0.093750 0.687500
vt 0.093750 0.250000
vt 0.093750 0.187500
vt 0.093750 0.625000
vt 0.093750 0.125000
vt 0.093750 0.562500
vt 0.093750 0.062500
vt 0.093750 0.500000
vt 0.109375 1.000000
vt 0.093750 0.937500
vt 0.109375 0.000000
vt 0.093750 0.437500
vt 0.093750 0.875000
vt 0.093750 0.375000
vt 0.093750 0.812500
vt 0.093750 0.312500
vt 0.062500 0.437500
vt 0.062500 0.875000
vt 0.062500 0.375000
vt 0.062500 0.812500
vt 0.062500 0.312500
vt 0.062500 0.750000
vt 0.062500 0.250000
vt 0.062500 0.687500
vt 0.062500 0.187500
vt 0.062500 0.625000
vt 0.062500 0.125000
vt 0.062500 0.562500
vt 0.062500 0.062500
vt 0.062500 0.500000
vt 0.078125 1.000000
vt 0.062500 0.937500
vt 0.078125 0.000000
vt 0.031250 0.250000
vt 0.031250 0.187500
vt 0.031250 0.625000
vt 0.031250 0.125000
vt 0.031250 0.562500
vt 0.031250 0.062500
vt 0.031250 0.500000
vt 0.046875 1.000000
vt 0.031250 0.937500
vt 0.046875 0.000000
vt 0.031250 0.437500
vt 0.031250 0.875000
vt 0.031250 0.375000
vt 0.031250 0.812500
vt 0.031250 0.312500
vt 0.031250 0.750000
vt 0.031250 0.687500
vt 0.000000 0.875000
vt 0.000000 0.375000
vt 0.000000 0.812500
vt 0.000000 0.312500
vt 0.000000 0.750000
vt 0.000000 0.250000
vt 0.000000 0.687500
vt 0.000000 0.187500
vt 0.000000 0.625000
vt 0.000000 0.125000
vt 0.000000 0.562500
vt 0.000000 0.062500
vt 0.000000 0.500000
vt 0.015625 1.000000
vt 0.000000 0.937500
vt 0.015625 0.000000
vt 0.000000 0.437500
vt 1.000000 0.687500
vt 0.968750 0.625000
vt 1.000000 0.625000
vt 1.000000 0.187500
vt 0.968750 0.125000
vt 1.000000 0.125000
vt 1.000000 0.562500
vt 0.968750 0.562500
vt 0.968750 0.062500
vt 1.000000 0.062500
vt 1.000000 0.500000
vt 0.968750 0.500000
vt 1.000000 0.937500
vt 0.984375 1.000000
vt 0.968750 0.937500
vt 0.984375 0.000000
vt 0.968750 0.437500
vt 1.000000 0.437500
vt 0.968750 0.875000
vt 1.000000 0.875000
vt 0.968750 0.375000
vt 1.000000 0.375000
vt 1.000000 0.812500
vt 0.968750 0.812500
vt 1.000000 0.312500
vt 0.968750 0.312500
vt 0.968750 0.750000
vt 1.000000 0.750000
vt 0.968750 0.250000
vt 1.000000 0.250000
vt 0.968750 0.687500
vt 0.968750 0.187500
vt 0.937500 0.375000
vt 0.937500 0.875000
vt 0.937500 0.812500
vt 0.937500 0.312500
vt 0.937500 0.750000
vt 0.937500 0.250000
vt 0.937500 0.687500
vt 0.937500 0.187500
vt 0.937500 0.625000
vt 0.937500 0.125000
vt 0.937500 0.562500
vt 0.937500 0.062500
vt 0.937500 0.500000
vt 0.953125 1.000000
vt 0.937500 0.937500
vt 0.953125 0.000000
vt 0.937500 0.437500
vt 0.906250 0.187500
vt 0.906250 0.125000
vt 0.906250 0.625000
vt 0.906250 0.562500
vt 0.906250 0.062500
vt 0.906250 0.500000
vt 0.921875 1.000000
vt 0.906250 0.937500
vt 0.921875 0.000000
vt 0.906250 0.437500
vt 0.906250 0.875000
vt 0.906250 0.375000
vt 0.906250 0.812500
vt 0.906250 0.312500
vt 0.906250 0.750000
vt 0.906250 0.250000
vt 0.906250 0.687500
vt 0.875000 0.375000
vt 0.875000 0.312500
vt 0.875000 0.750000
vt 0.875000 0.250000
vt 0.875000 0.687500
vt 0.875000 0.187500
vt 0.875000 0.625000
vt 0.875000 0.125000
vt 0.875000 0.562500
vt 0.875000 0.062500
vt 0.875000 0.500000
vt 0.890625 1.000000
vt 0.875000 0.937500
vt 0.890625 0.000000
vt 0.875000 0.437500
vt 0.875000 0.875000
vt 0.875000 0.812500
vt 0.843750 0.062500
vt 0.843750 0.562500
vt 0.843750 0.500000
vt 0.859375 1.000000
vt 0.843750 0.937500
vt 0.859375 0.000000
vt 0.843750 0.437500
vt 0.843750 0.875000
vt 0.843750 0.375000
vt 0.843750 0.812500
vt 0.843750 0.312500
vt 0.843750 0.750000
vt 0.843750 0.250000
vt 0.843750 0.687500
vt 0.843750 0.187500
vt 0.843750 0.625000
vt 0.843750 0.125000
vt 0.812500 0.750000
vt 0.812500 0.250000
vt 0.812500 0.687500
vt 0.812500 0.187500
vt 0.812500 0.625000
vt 0.812500 0.125000
vt 0.812500 0.562500
vt 0.812500 0.062500
vt 0.812500 0.500000
vt 0.828125 1.000000
vt 0.812500 0.937500
vt 0.828125 0.000000
vt 0.812500 0.437500
vt 0.812500 0.875000
vt 0.812500 0.375000
vt 0.812500 0.812500
vt 0.812500 0.312500
vt 0.781250 0.562500
vt 0.781250 0.500000
vt 0.796875 1.000000
vt 0.781250 0.937500
vt 0.796875 0.000000
vt 0.781250 0.062500
vt 0.781250 0.437500
vt 0.781250 0.875000
vt 0.781250 0.375000
vt 0.781250 0.812500
vt 0.781250 0.312500
vt 0.781250 0.750000
vt 0.781250 0.250000
vt 0.781250 0.687500
vt 0.781250 0.187500
vt 0.781250 0.625000
vt 0.781250 0.125000
vt 0.765625 1.000000
vt 0.765625 0.000000
s 1
f 476/1/476 9/2/9 10/3/10
f 6/4/6 18/5/18 479/6/479
f 2/7/2 10/3/10 11/8/11
f 479/6/479 19/9/19 480/10/480
f 477/11/477 11/8/11 12/12/12
f 480/10/480 20/13/20 481/14/481
f 3/15/3 12/12/12 13/16/13
f 481/14/481 21/17/21 482/18/482
f 3/15/3 14/19/14 4/20/4
f 474/21/474 82/22/82 7/23/7
f 308/24/308 482/18/482 21/17/21
f 4/20/4 15/25/15 5/26/5
f 475/27/475 7/23/7 8/28/8
f 5/26/5 16/29/16 478/30/478
f 1/31/1 8/28/8 9/2/9
f 478/30/478 17/32/17 6/4/6
f 8/28/8 24/33/24 9/2/9
f 16/29/16 32/34/32 17/32/17
f 9/2/9 25/35/25 10/3/10
f 17/32/17 33/36/33 18/5/18
f 10/3/10 26/37/26 11/8/11
f 19/9/19 33/36/33 34/38/34
f 11/8/11 27/39/27 12/12/12
f 20/13/20 34/38/34 35/40/35
f 13/16/13 27/39/27 28/41/28
f 20/13/20 36/42/36 21/17/21
f 13/16/13 29/43/29 14/19/14
f 7/23/7 82/44/82 22/45/22
f 308/46/308 21/17/21 36/42/36
f 14/19/14 30/47/30 15/25/15
f 7/23/7 23/48/23 8/28/8
f 15/25/15 31/49/31 16/29/16
f 27/39/27 43/50/43 28/41/28
f 35/40/35 51/51/51 36/42/36
f 28/41/28 44/52/44 29/43/29
f 22/45/22 82/53/82 37/54/37
f 308/55/308 36/42/36 51/51/51
f 30/47/30 44/52/44 45/56/45
f 22/45/22 38/57/38 23/48/23
f 30/47/30 46/58/46 31/49/31
f 23/48/23 39/59/39 24/33/24
f 32/34/32 46/58/46 47/60/47
f 24/33/24 40/61/40 25/35/25
f 33/36/33 47/60/47 48/62/48
f 25/35/25 41/63/41 26/37/26
f 34/38/34 48/62/48 49/64/49
f 26/37/26 42/65/42 27/39/27
f 34/38/34 50/66/50 35/40/35
f 47/60/47 61/67/61 62/68/62
f 39/59/39 55/69/55 40/61/40
f 47/60/47 63/70/63 48/62/48
f 40/61/40 56/71/56 41/63/41
f 48/62/48 64/72/64 49/64/49
f 41/63/41 57/73/57 42/65/42
f 49/64/49 65/74/65 50/66/50
f 43/50/43 57/73/57 58/75/58
f 50/66/50 66/76/66 51/51/51
f 44/52/44 58/75/58 59/77/59
f 37/54/37 82/78/82 52/79/52
f 308/80/308 51/51/51 66/76/66
f 44/52/44 60/81/60 45/56/45
f 37/54/37 53/82/53 38/57/38
f 45/56/45 61/67/61 46/58/46
f 38/57/38 54/83/54 39/59/39
f 65/74/65 81/84/81 66/76/66
f 59/77/59 73/85/73 74/86/74
f 52/79/52 82/87/82 67/88/67
f 308/89/308 66/76/66 81/84/81
f 59/77/59 75/90/75 60/81/60
f 52/79/52 68/91/68 53/82/53
f 60/81/60 76/92/76 61/67/61
f 53/82/53 69/93/69 54/83/54
f 62/68/62 76/92/76 77/94/77
f 54/83/54 70/95/70 55/69/55
f 62/68/62 78/96/78 63/70/63
f 56/71/56 70/95/70 71/97/71
f 63/70/63 79/98/79 64/72/64
f 56/71/56 72/99/72 57/73/57
f 65/74/65 79/98/79 80/100/80
f 58/75/58 72/99/72 73/85/73
f 69/93/69 86/101/86 70/95/70
f 77/94/77 94/102/94 78/96/78
f 71/97/71 86/101/86 87/103/87
f 78/96/78 95/104/95 79/98/79
f 71/97/71 88/105/88 72/99/72
f 79/98/79 96/106/96 80/100/80
f 73/85/73 88/105/88 89/107/89
f 81/84/81 96/106/96 97/108/97
f 74/86/74 89/107/89 90/109/90
f 67/88/67 82/110/82 83/111/83
f 308/112/308 81/84/81 97/108/97
f 74/86/74 91/113/91 75/90/75
f 67/88/67 84/114/84 68/91/68
f 75/90/75 92/115/92 76/92/76
f 68/91/68 85/116/85 69/93/69
f 77/94/77 92/115/92 93/117/93
f 90/109/90 104/118/104 105/119/105
f 83/111/83 82/120/82 98/121/98
f 308/122/308 97/108/97 112/123/112
f 90/109/90 106/124/106 91/113/91
f 84/114/84 98/121/98 99/125/99
f 91/113/91 107/126/107 92/115/92
f 84/114/84 100/127/100 85/116/85
f 93/117/93 107/126/107 108/128/108
f 85/116/85 101/129/101 86/101/86
f 93/117/93 109/130/109 94/102/94
f 87/103/87 101/129/101 102/131/102
f 95/104/95 109/130/109 110/132/110
f 87/103/87 103/133/103 88/105/88
f 96/106/96 110/132/110 111/134/111
f 89/107/89 103/133/103 104/118/104
f 96/106/96 112/123/112 97/108/97
f 108/128/108 124/135/124 109/130/109
f 102/131/102 116/136/116 117/137/117
f 110/132/110 124/135/124 125/138/125
f 102/131/102 118/139/118 103/133/103
f 110/132/110 126/140/126 111/134/111
f 104/118/104 118/139/118 119/141/119
f 111/134/111 127/142/127 112/123/112
f 105/119/105 119/141/119 120/143/120
f 98/121/98 82/144/82 113/145/113
f 308/146/308 112/123/112 127/142/127
f 105/119/105 121/147/121 106/124/106
f 99/125/99 113/145/113 114/148/114
f 106/124/106 122/149/122 107/126/107
f 99/125/99 115/150/115 100/127/100
f 108/128/108 122/149/122 123/151/123
f 100/127/100 116/136/116 101/129/101
f 308/152/308 127/142/127 142/153/142
f 120/143/120 136/154/136 121/147/121
f 113/145/113 129/155/129 114/148/114
f 121/147/121 137/156/137 122/149/122
f 114/148/114 130/157/130 115/150/115
f 123/151/123 137/156/137 138/158/138
f 115/150/115 131/159/131 116/136/116
f 123/151/123 139/160/139 124/135/124
f 117/137/117 131/159/131 132/161/132
f 125/138/125 139/160/139 140/162/140
f 117/137/117 133/163/133 118/139/118
f 125/138/125 141/164/141 126/140/126
f 119/141/119 133/163/133 134/165/134
f 126/140/126 142/153/142 127/142/127
f 120/143/120 134/165/134 135/166/135
f 113/145/113 82/167/82 128/168/128
f 140/162/140 154/169/154 155/170/155
f 132/161/132 148/171/148 133/163/133
f 140/162/140 156/172/156 141/164/141
f 134/165/134 148/171/148 149/173/149
f 142/153/142 156/172/156 157/174/157
f 135/166/135 149/173/149 150/175/150
f 128/168/128 82/176/82 143/177/143
f 308/178/308 142/153/142 157/174/157
f 135/166/135 151/179/151 136/154/136
f 128/168/128 144/180/144 129/155/129
f 136/154/136 152/181/152 137/156/137
f 130/157/130 144/180/144 145/182/145
f 138/158/138 152/181/152 153/183/153
f 130/157/130 146/184/146 131/159/131
f 138/158/138 154/169/154 139/160/139
f 132/161/132 146/184/146 147/185/147
f 143/177/143 159/186/159 144/180/144
f 151/179/151 167/187/167 152/181/152
f 145/182/145 159/186/159 160/188/160
f 153/183/153 167/187/167 168/189/168
f 145/182/145 161/190/161 146/184/146
f 153/183/153 169/191/169 154/169/154
f 147/185/147 161/190/161 162/192/162
f 155/170/155 169/191/169 170/193/170
f 147/185/147 163/194/163 148/171/148
f 155/170/155 171/195/171 156/172/156
f 149/173/149 163/194/163 164/196/164
f 156/172/156 172/197/172 157/174/157
f 150/175/150 164/196/164 165/198/165
f 143/177/143 82/199/82 158/200/158
f 308/201/308 157/174/157 172/197/172
f 150/175/150 166/202/166 151/179/151
f 162/192/162 178/203/178 163/194/163
f 171/195/171 185/204/185 186/205/186
f 164/196/164 178/203/178 179/206/179
f 172/197/172 186/205/186 187/207/187
f 165/198/165 179/206/179 180/208/180
f 158/200/158 82/209/82 173/210/173
f 308/211/308 172/197/172 187/207/187
f 165/198/165 181/212/181 166/202/166
f 158/200/158 174/213/174 159/186/159
f 166/202/166 182/214/182 167/187/167
f 159/186/159 175/215/175 160/188/160
f 168/189/168 182/214/182 183/216/183
f 160/188/160 176/217/176 161/190/161
f 168/189/168 184/218/184 169/191/169
f 162/192/162 176/217/176 177/219/177
f 169/191/169 185/204/185 170/193/170
f 181/212/181 197/220/197 182/214/182
f 175/215/175 189/221/189 190/222/190
f 183/216/183 197/220/197 198/223/198
f 175/215/175 191/224/191 176/217/176
f 183/216/183 199/225/199 184/218/184
f 177/219/177 191/224/191 192/226/192
f 185/204/185 199/225/199 200/227/200
f 177/219/177 193/228/193 178/203/178
f 185/204/185 201/229/201 186/205/186
f 179/206/179 193/228/193 194/230/194
f 186/205/186 202/231/202 187/207/187
f 180/208/180 194/230/194 195/232/195
f 173/210/173 82/233/82 188/234/188
f 308/235/308 187/207/187 202/231/202
f 180/208/180 196/236/196 181/212/181
f 174/213/174 188/234/188 189/221/189
f 200/227/200 216/237/216 201/229/201
f 194/230/194 208/238/208 209/239/209
f 201/229/201 217/240/217 202/231/202
f 195/232/195 209/239/209 210/241/210
f 188/234/188 82/242/82 203/243/203
f 308/244/308 202/231/202 217/240/217
f 195/232/195 211/245/211 196/236/196
f 188/234/188 204/246/204 189/221/189
f 196/236/196 212/247/212 197/220/197
f 189/221/189 205/248/205 190/222/190
f 198/223/198 212/247/212 213/249/213
f 190/222/190 206/250/206 191/224/191
f 198/223/198 214/251/214 199/225/199
f 192/226/192 206/250/206 207/252/207
f 200/227/200 214/251/214 215/253/215
f 192/226/192 208/238/208 193/228/193
f 204/246/204 220/254/220 205/248/205
f 213/249/213 227/255/227 228/256/228
f 205/248/205 221/257/221 206/250/206
f 213/249/213 229/258/229 214/251/214
f 207/252/207 221/257/221 222/259/222
f 215/253/215 229/258/229 230/260/230
f 207/252/207 223/261/223 208/238/208
f 215/253/215 231/262/231 216/237/216
f 209/239/209 223/261/223 224/263/224
f 216/237/216 232/264/232 217/240/217
f 210/241/210 224/263/224 225/265/225
f 203/243/203 82/266/82 218/267/218
f 308/268/308 217/240/217 232/264/232
f 210/241/210 226/269/226 211/245/211
f 203/243/203 219/270/219 204/246/204
f 211/245/211 227/255/227 212/247/212
f 224/263/224 238/271/238 239/272/239
f 232/264/232 246/273/246 247/274/247
f 225/265/225 239/272/239 240/275/240
f 218/267/218 82/276/82 233/277/233
f 308/278/308 232/264/232 247/274/247
f 225/265/225 241/279/241 226/269/226
f 218/267/218 234/280/234 219/270/219
f 226/269/226 242/281/242 227/255/227
f 220/254/220 234/280/234 235/282/235
f 228/256/228 242/281/242 243/283/243
f 220/254/220 236/284/236 221/257/221
f 228/256/228 244/285/244 229/258/229
f 222/259/222 236/284/236 237/286/237
f 230/260/230 244/285/244 245/287/245
f 222/259/222 238/271/238 223/261/223
f 230/260/230 246/273/246 231/262/231
f 243/283/243 257/288/257 258/289/258
f 235/282/235 251/290/251 236/284/236
f 243/283/243 259/291/259 244/285/244
f 237/286/237 251/290/251 252/292/252
f 245/287/245 259/291/259 260/293/260
f 237/286/237 253/294/253 238/271/238
f 245/287/245 261/295/261 246/273/246
f 239/272/239 253/294/253 254/296/254
f 246/273/246 262/297/262 247/274/247
f 240/275/240 254/296/254 255/298/255
f 233/277/233 82/299/82 248/300/248
f 308/301/308 247/274/247 262/297/262
f 240/275/240 256/302/256 241/279/241
f 233/277/233 249/303/249 234/280/234
f 241/279/241 257/288/257 242/281/242
f 234/280/234 250/304/250 235/282/235
f 261/295/261 277/305/277 262/297/262
f 255/298/255 269/306/269 270/307/270
f 248/300/248 82/308/82 263/309/263
f 308/310/308 262/297/262 277/305/277
f 255/298/255 271/311/271 256/302/256
f 249/303/249 263/309/263 264/312/264
f 256/302/256 272/313/272 257/288/257
f 249/303/249 265/314/265 250/304/250
f 258/289/258 272/313/272 273/315/273
f 250/304/250 266/316/266 251/290/251
f 258/289/258 274/317/274 259/291/259
f 252/292/252 266/316/266 267/318/267
f 260/293/260 274/317/274 275/319/275
f 252/292/252 268/320/268 253/294/253
f 260/293/260 276/321/276 261/295/261
f 254/296/254 268/320/268 269/306/269
f 273/315/273 289/322/289 274/317/274
f 267/318/267 281/323/281 282/324/282
f 275/319/275 289/322/289 290/325/290
f 267/318/267 283/326/283 268/320/268
f 275/319/275 291/327/291 276/321/276
f 269/306/269 283/326/283 284/328/284
f 277/305/277 291/327/291 292/329/292
f 270/307/270 284/328/284 285/330/285
f 263/309/263 82/331/82 278/332/278
f 308/333/308 277/305/277 292/329/292
f 270/307/270 286/334/286 271/311/271
f 264/312/264 278/332/278 279/335/279
f 271/311/271 287/336/287 272/313/272
f 264/312/264 280/337/280 265/314/265
f 273/315/273 287/336/287 288/338/288
f 265/314/265 281/323/281 266/316/266
f 278/332/278 82/339/82 293/340/293
f 308/341/308 292/329/292 307/342/307
f 285/330/285 301/343/301 286/334/286
f 278/332/278 294/344/294 279/335/279
f 286/334/286 302/345/302 287/336/287
f 279/335/279 295/346/295 280/337/280
f 288/338/288 302/345/302 303/347/303
f 280/337/280 296/348/296 281/323/281
f 288/338/288 304/349/304 289/322/289
f 282/324/282 296/348/296 297/350/297
f 290/325/290 304/349/304 305/351/305
f 282/324/282 298/352/298 283/326/283
f 290/325/290 306/353/306 291/327/291
f 284/328/284 298/352/298 299/354/299
f 292/329/292 306/353/306 307/342/307
f 285/330/285 299/354/299 300/355/300
f 297/350/297 312/356/312 313/357/313
f 305/351/305 320/358/320 321/359/321
f 297/350/297 314/360/314 298/352/298
f 305/351/305 322/361/322 306/353/306
f 299/354/299 314/360/314 315/362/315
f 306/353/306 323/363/323 307/342/307
f 300/355/300 315/362/315 316/364/316
f 293/340/293 82/365/82 309/366/309
f 308/367/308 307/342/307 323/363/323
f 300/355/300 317/368/317 301/343/301
f 293/340/293 310/369/310 294/344/294
f 301/343/301 318/370/318 302/345/302
f 294/344/294 311/371/311 295/346/295
f 303/347/303 318/370/318 319/372/319
f 295/346/295 312/356/312 296/348/296
f 303/347/303 320/358/320 304/349/304
f 316/364/316 332/373/332 317/368/317
f 309/366/309 325/374/325 310/369/310
f 317/368/317 333/375/333 318/370/318
f 310/369/310 326/376/326 311/371/311
f 319/372/319 333/375/333 334/377/334
f 311/371/311 327/378/327 312/356/312
f 319/372/319 335/379/335 320/358/320
f 312/356/312 328/380/328 313/357/313
f 321/359/321 335/379/335 336/381/336
f 313/357/313 329/382/329 314/360/314
f 321/359/321 337/383/337 322/361/322
f 315/362/315 329/382/329 330/384/330
f 322/361/322 338/385/338 323/363/323
f 316/364/316 330/384/330 331/386/331
f 309/366/309 82/387/82 324/388/324
f 308/389/308 323/363/323 338/385/338
f 336/381/336 350/390/350 351/391/351
f 328/380/328 344/392/344 329/382/329
f 336/381/336 352/393/352 337/383/337
f 330/384/330 344/392/344 345/394/345
f 337/383/337 353/395/353 338/385/338
f 331/386/331 345/394/345 346/396/346
f 324/388/324 82/397/82 339/398/339
f 308/399/308 338/385/338 353/395/353
f 331/386/331 347/400/347 332/373/332
f 324/388/324 340/401/340 325/374/325
f 332/373/332 348/402/348 333/375/333
f 325/374/325 341/403/341 326/376/326
f 334/377/334 348/402/348 349/404/349
f 326/376/326 342/405/342 327/378/327
f 334/377/334 350/390/350 335/379/335
f 328/380/328 342/405/342 343/406/343
f 339/398/339 355/407/355 340/401/340
f 347/400/347 363/408/363 348/402/348
f 341/403/341 355/407/355 356/409/356
f 349/404/349 363/408/363 364/410/364
f 341/403/341 357/411/357 342/405/342
f 349/404/349 365/412/365 350/390/350
f 343/406/343 357/411/357 358/413/358
f 351/391/351 365/412/365 366/414/366
f 343/406/343 359/415/359 344/392/344
f 351/391/351 367/416/367 352/393/352
f 345/394/345 359/415/359 360/417/360
f 352/393/352 368/418/368 353/395/353
f 346/396/346 360/417/360 361/419/361
f 339/398/339 82/420/82 354/421/354
f 308/422/308 353/395/353 368/418/368
f 346/396/346 362/423/362 347/400/347
f 358/424/358 374/425/374 359/426/359
f 366/427/366 382/428/382 367/429/367
f 360/430/360 374/425/374 375/431/375
f 367/429/367 383/432/383 368/433/368
f 361/434/361 375/431/375 376/435/376
f 354/436/354 82/437/82 369/438/369
f 308/439/308 368/433/368 383/432/383
f 361/434/361 377/440/377 362/441/362
f 354/436/354 370/442/370 355/443/355
f 362/441/362 378/444/378 363/445/363
f 356/446/356 370/442/370 371/447/371
f 364/448/364 378/444/378 379/449/379
f 356/446/356 372/450/372 357/451/357
f 364/448/364 380/452/380 365/453/365
f 358/424/358 372/450/372 373/454/373
f 366/427/366 380/452/380 381/455/381
f 377/440/377 393/456/393 378/444/378
f 371/447/371 385/457/385 386/458/386
f 379/449/379 393/456/393 394/459/394
f 371/447/371 387/460/387 372/450/372
f 379/449/379 395/461/395 380/452/380
f 373/454/373 387/460/387 388/462/388
f 381/455/381 395/461/395 396/463/396
f 373/454/373 389/464/389 374/425/374
f 381/455/381 397/465/397 382/428/382
f 375/431/375 389/464/389 390/466/390
f 382/428/382 398/467/398 383/432/383
f 376/435/376 390/466/390 391/468/391
f 369/438/369 82/469/82 384/470/384
f 308/471/308 383/432/383 398/467/398
f 376/435/376 392/472/392 377/440/377
f 369/438/369 385/457/385 370/442/370
f 397/465/397 411/473/411 412/474/412
f 390/466/390 404/475/404 405/476/405
f 397/465/397 413/477/413 398/467/398
f 391/468/391 405/476/405 406/478/406
f 384/470/384 82/479/82 399/480/399
f 308/481/308 398/467/398 413/477/413
f 391/468/391 407/482/407 392/472/392
f 385/457/385 399/480/399 400/483/400
f 392/472/392 408/484/408 393/456/393
f 385/457/385 401/485/401 386/458/386
f 394/459/394 408/484/408 409/486/409
f 386/458/386 402/487/402 387/460/387
f 394/459/394 410/488/410 395/461/395
f 388/462/388 402/487/402 403/489/403
f 396/463/396 410/488/410 411/473/411
f 388/462/388 404/475/404 389/464/389
f 409/486/409 423/490/423 424/491/424
f 401/485/401 417/492/417 402/487/402
f 409/486/409 425/493/425 410/488/410
f 403/489/403 417/492/417 418/494/418
f 411/473/411 425/493/425 426/495/426
f 403/489/403 419/496/419 404/475/404
f 411/473/411 427/497/427 412/474/412
f 405/476/405 419/496/419 420/498/420
f 412/474/412 428/499/428 413/477/413
f 406/478/406 420/498/420 421/500/421
f 399/480/399 82/501/82 414/502/414
f 308/503/308 413/477/413 428/499/428
f 406/478/406 422/504/422 407/482/407
f 399/480/399 415/505/415 400/483/400
f 407/482/407 423/490/423 408/484/408
f 401/485/401 415/505/415 416/506/416
f 427/497/427 443/507/443 428/499/428
f 421/500/421 435/508/435 436/509/436
f 414/502/414 82/510/82 429/511/429
f 308/512/308 428/499/428 443/507/443
f 421/500/421 437/513/437 422/504/422
f 414/502/414 430/514/430 415/505/415
f 422/504/422 438/515/438 423/490/423
f 416/506/416 430/514/430 431/516/431
f 424/491/424 438/515/438 439/517/439
f 416/506/416 432/518/432 417/492/417
f 424/491/424 440/519/440 425/493/425
f 418/494/418 432/518/432 433/520/433
f 426/495/426 440/519/440 441/521/441
f 418/494/418 434/522/434 419/496/419
f 426/495/426 442/523/442 427/497/427
f 420/498/420 434/522/434 435/508/435
f 431/516/431 447/524/447 432/518/432
f 439/517/439 455/525/455 440/519/440
f 433/520/433 447/524/447 448/526/448
f 441/521/441 455/525/455 456/527/456
f 433/520/433 449/528/449 434/522/434
f 441/521/441 457/529/457 442/523/442
f 435/508/435 449/528/449 450/530/450
f 442/523/442 458/531/458 443/507/443
f 436/509/436 450/530/450 451/532/451
f 429/511/429 82/533/82 444/534/444
f 308/535/308 443/507/443 458/531/458
f 436/509/436 452/536/452 437/513/437
f 430/514/430 444/534/444 445/537/445
f 437/513/437 453/538/453 438/515/438
f 430/514/430 446/539/446 431/516/431
f 439/517/439 453/538/453 454/540/454
f 451/532/451 465/541/465 466/542/466
f 444/534/444 82/543/82 459/544/459
f 308/545/308 458/531/458 473/546/473
f 451/532/451 467/547/467 452/536/452
f 444/534/444 460/548/460 445/537/445
f 452/536/452 468/549/468 453/538/453
f 446/539/446 460/548/460 461/550/461
f 454/540/454 468/549/468 469/551/469
f 446/539/446 462/552/462 447/524/447
f 454/540/454 470/553/470 455/525/455
f 448/526/448 462/552/462 463/554/463
f 456/527/456 470/553/470 471/555/471
f 448/526/448 464/556/464 449/528/449
f 456/527/456 472/557/472 457/529/457
f 450/530/450 464/556/464 465/541/465
f 458/531/458 472/557/472 473/546/473
f 469/551/469 479/6/479 470/553/470
f 463/554/463 476/1/476 2/7/2
f 471/555/471 479/6/479 480/10/480
f 464/556/464 2/7/2 477/11/477
f 471/555/471 481/14/481 472/557/472
f 465/541/465 477/11/477 3/15/3
f 472/557/472 482/18/482 473/546/473
f 466/542/466 3/15/3 4/20/4
f 459/544/459 82/558/82 474/21/474
f 308/559/308 473/546/473 482/18/482
f 466/542/466 5/26/5 467/547/467
f 460/548/460 474/21/474 475/27/475
f 467/547/467 478/30/478 468/549/468
f 461/550/461 475/27/475 1/31/1
f 468/549/468 6/4/6 469/551/469
f 462/552/462 1/31/1 476/1/476
f 476/1/476 1/31/1 9/2/9
f 6/4/6 17/32/17 18/5/18
f 2/7/2 476/1/476 10/3/10
f 479/6/479 18/5/18 19/9/19
f 477/11/477 2/7/2 11/8/11
f 480/10/480 19/9/19 20/13/20
f 3/15/3 477/11/477 12/12/12
f 481/14/481 20/13/20 21/17/21
f 3/15/3 13/16/13 14/19/14
f 4/20/4 14/19/14 15/25/15
f 475/27/475 474/21/474 7/23/7
f 5/26/5 15/25/15 16/29/16
f 1/31/1 475/27/475 8/28/8
f 478/30/478 16/29/16 17/32/17
f 8/28/8 23/48/23 24/33/24
f 16/29/16 31/49/31 32/34/32
f 9/2/9 24/33/24 25/35/25
f 17/32/17 32/34/32 33/36/33
f 10/3/10 25/35/25 26/37/26
f 19/9/19 18/5/18 33/36/33
f 11/8/11 26/37/26 27/39/27
f 20/13/20 19/9/19 34/38/34
f 13/16/13 12/12/12 27/39/27
f 20/13/20 35/40/35 36/42/36
f 13/16/13 28/41/28 29/43/29
f 14/19/14 29/43/29 30/47/30
f 7/23/7 22/45/22 23/48/23
f 15/25/15 30/47/30 31/49/31
f 27/39/27 42/65/42 43/50/43
f 35/40/35 50/66/50 51/51/51
f 28/41/28 43/50/43 44/52/44
f 30/47/30 29/43/29 44/52/44
f 22/45/22 37/54/37 38/57/38
f 30/47/30 45/56/45 46/58/46
f 23/48/23 38/57/38 39/59/39
f 32/34/32 31/49/31 46/58/46
f 24/33/24 39/59/39 40/61/40
f 33/36/33 32/34/32 47/60/47
f 25/35/25 40/61/40 41/63/41
f 34/38/34 33/36/33 48/62/48
f 26/37/26 41/63/41 42/65/42
f 34/38/34 49/64/49 50/66/50
f 47/60/47 46/58/46 61/67/61
f 39/59/39 54/83/54 55/69/55
f 47/60/47 62/68/62 63/70/63
f 40/61/40 55/69/55 56/71/56
f 48/62/48 63/70/63 64/72/64
f 41/63/41 56/71/56 57/73/57
f 49/64/49 64/72/64 65/74/65
f 43/50/43 42/65/42 57/73/57
f 50/66/50 65/74/65 66/76/66
f 44/52/44 43/50/43 58/75/58
f 44/52/44 59/77/59 60/81/60
f 37/54/37 52/79/52 53/82/53
f 45/56/45 60/81/60 61/67/61
f 38/57/38 53/82/53 54/83/54
f 65/74/65 80/100/80 81/84/81
f 59/77/59 58/75/58 73/85/73
f 59/77/59 74/86/74 75/90/75
f 52/79/52 67/88/67 68/91/68
f 60/81/60 75/90/75 76/92/76
f 53/82/53 68/91/68 69/93/69
f 62/68/62 61/67/61 76/92/76
f 54/83/54 69/93/69 70/95/70
f 62/68/62 77/94/77 78/96/78
f 56/71/56 55/69/55 70/95/70
f 63/70/63 78/96/78 79/98/79
f 56/71/56 71/97/71 72/99/72
f 65/74/65 64/72/64 79/98/79
f 58/75/58 57/73/57 72/99/72
f 69/93/69 85/116/85 86/101/86
f 77/94/77 93/117/93 94/102/94
f 71/97/71 70/95/70 86/101/86
f 78/96/78 94/102/94 95/104/95
f 71/97/71 87/103/87 88/105/88
f 79/98/79 95/104/95 96/106/96
f 73/85/73 72/99/72 88/105/88
f 81/84/81 80/100/80 96/106/96
f 74/86/74 73/85/73 89/107/89
f 74/86/74 90/109/90 91/113/91
f 67/88/67 83/111/83 84/114/84
f 75/90/75 91/113/91 92/115/92
f 68/91/68 84/114/84 85/116/85
f 77/94/77 76/92/76 92/115/92
f 90/109/90 89/107/89 104/118/104
f 90/109/90 105/119/105 106/124/106
f 84/114/84 83/111/83 98/121/98
f 91/113/91 106/124/106 107/126/107
f 84/114/84 99/125/99 100/127/100
f 93/117/93 92/115/92 107/126/107
f 85/116/85 100/127/100 101/129/101
f 93/117/93 108/128/108 109/130/109
f 87/103/87 86/101/86 101/129/101
f 95/104/95 94/102/94 109/130/109
f 87/103/87 102/131/102 103/133/103
f 96/106/96 95/104/95 110/132/110
f 89/107/89 88/105/88 103/133/103
f 96/106/96 111/134/111 112/123/112
f 108/128/108 123/151/123 124/135/124
f 102/131/102 101/129/101 116/136/116
f 110/132/110 109/130/109 124/135/124
f 102/131/102 117/137/117 118/139/118
f 110/132/110 125/138/125 126/140/126
f 104/118/104 103/133/103 118/139/118
f 111/134/111 126/140/126 127/142/127
f 105/119/105 104/118/104 119/141/119
f 105/119/105 120/143/120 121/147/121
f 99/125/99 98/121/98 113/145/113
f 106/124/106 121/147/121 122/149/122
f 99/125/99 114/148/114 115/150/115
f 108/128/108 107/126/107 122/149/122
f 100/127/100 115/150/115 116/136/116
f 120/143/120 135/166/135 136/154/136
f 113/145/113 128/168/128 129/155/129
f 121/147/121 136/154/136 137/156/137
f 114/148/114 129/155/129 130/157/130
f 123/151/123 122/149/122 137/156/137
f 115/150/115 130/157/130 131/159/131
f 123/151/123 138/158/138 139/160/139
f 117/137/117 116/136/116 131/159/131
f 125/138/125 124/135/124 139/160/139
f 117/137/117 132/161/132 133/163/133
f 125/138/125 140/162/140 141/164/141
f 119/141/119 118/139/118 133/163/133
f 126/140/126 141/164/141 142/153/142
f 120/143/120 119/141/119 134/165/134
f 140/162/140 139/160/139 154/169/154
f 132/161/132 147/185/147 148/171/148
f 140/162/140 155/170/155 156/172/156
f 134/165/134 133/163/133 148/171/148
f 142/153/142 141/164/141 156/172/156
f 135/166/135 134/165/134 149/173/149
f 135/166/135 150/175/150 151/179/151
f 128/168/128 143/177/143 144/180/144
f 136/154/136 151/179/151 152/181/152
f 130/157/130 129/155/129 144/180/144
f 138/158/138 137/156/137 152/181/152
f 130/157/130 145/182/145 146/184/146
f 138/158/138 153/183/153 154/169/154
f 132/161/132 131/159/131 146/184/146
f 143/177/143 158/200/158 159/186/159
f 151/179/151 166/202/166 167/187/167
f 145/182/145 144/180/144 159/186/159
f 153/183/153 152/181/152 167/187/167
f 145/182/145 160/188/160 161/190/161
f 153/183/153 168/189/168 169/191/169
f 147/185/147 146/184/146 161/190/161
f 155/170/155 154/169/154 169/191/169
f 147/185/147 162/192/162 163/194/163
f 155/170/155 170/193/170 171/195/171
f 149/173/149 148/171/148 163/194/163
f 156/172/156 171/195/171 172/197/172
f 150/175/150 149/173/149 164/196/164
f 150/175/150 165/198/165 166/202/166
f 162/192/162 177/219/177 178/203/178
f 171/195/171 170/193/170 185/204/185
f 164/196/164 163/194/163 178/203/178
f 172/197/172 171/195/171 186/205/186
f 165/198/165 164/196/164 179/206/179
f 165/198/165 180/208/180 181/212/181
f 158/200/158 173/210/173 174/213/174
f 166/202/166 181/212/181 182/214/182
f 159/186/159 174/213/174 175/215/175
f 168/189/168 167/187/167 182/214/182
f 160/188/160 175/215/175 176/217/176
f 168/189/168 183/216/183 184/218/184
f 162/192/162 161/190/161 176/217/176
f 169/191/169 184/218/184 185/204/185
f 181/212/181 196/236/196 197/220/197
f 175/215/175 174/213/174 189/221/189
f 183/216/183 182/214/182 197/220/197
f 175/215/175 190/222/190 191/224/191
f 183/216/183 198/223/198 199/225/199
f 177/219/177 176/217/176 191/224/191
f 185/204/185 184/218/184 199/225/199
f 177/219/177 192/226/192 193/228/193
f 185/204/185 200/227/200 201/229/201
f 179/206/179 178/203/178 193/228/193
f 186/205/186 201/229/201 202/231/202
f 180/208/180 179/206/179 194/230/194
f 180/208/180 195/232/195 196/236/196
f 174/213/174 173/210/173 188/234/188
f 200/227/200 215/253/215 216/237/216
f 194/230/194 193/228/193 208/238/208
f 201/229/201 216/237/216 217/240/217
f 195/232/195 194/230/194 209/239/209
f 195/232/195 210/241/210 211/245/211
f 188/234/188 203/243/203 204/246/204
f 196/236/196 211/245/211 212/247/212
f 189/221/189 204/246/204 205/248/205
f 198/223/198 197/220/197 212/247/212
f 190/222/190 205/248/205 206/250/206
f 198/223/198 213/249/213 214/251/214
f 192/226/192 191/224/191 206/250/206
f 200/227/200 199/225/199 214/251/214
f 192/226/192 207/252/207 208/238/208
f 204/246/204 219/270/219 220/254/220
f 213/249/213 212/247/212 227/255/227
f 205/248/205 220/254/220 221/257/221
f 213/249/213 228/256/228 229/258/229
f 207/252/207 206/250/206 221/257/221
f 215/253/215 214/251/214 229/258/229
f 207/252/207 222/259/222 223/261/223
f 215/253/215 230/260/230 231/262/231
f 209/239/209 208/238/208 223/261/223
f 216/237/216 231/262/231 232/264/232
f 210/241/210 209/239/209 224/263/224
f 210/241/210 225/265/225 226/269/226
f 203/243/203 218/267/218 219/270/219
f 211/245/211 226/269/226 227/255/227
f 224/263/224 223/261/223 238/271/238
f 232/264/232 231/262/231 246/273/246
f 225/265/225 224/263/224 239/272/239
f 225/265/225 240/275/240 241/279/241
f 218/267/218 233/277/233 234/280/234
f 226/269/226 241/279/241 242/281/242
f 220/254/220 219/270/219 234/280/234
f 228/256/228 227/255/227 242/281/242
f 220/254/220 235/282/235 236/284/236
f 228/256/228 243/283/243 244/285/244
f 222/259/222 221/257/221 236/284/236
f 230/260/230 229/258/229 244/285/244
f 222/259/222 237/286/237 238/271/238
f 230/260/230 245/287/245 246/273/246
f 243/283/243 242/281/242 257/288/257
f 235/282/235 250/304/250 251/290/251
f 243/283/243 258/289/258 259/291/259
f 237/286/237 236/284/236 251/290/251
f 245/287/245 244/285/244 259/291/259
f 237/286/237 252/292/252 253/294/253
f 245/287/245 260/293/260 261/295/261
f 239/272/239 238/271/238 253/294/253
f 246/273/246 261/295/261 262/297/262
f 240/275/240 239/272/239 254/296/254
f 240/275/240 255/298/255 256/302/256
f 233/277/233 248/300/248 249/303/249
f 241/279/241 256/302/256 257/288/257
f 234/280/234 249/303/249 250/304/250
f 261/295/261 276/321/276 277/305/277
f 255/298/255 254/296/254 269/306/269
f 255/298/255 270/307/270 271/311/271
f 249/303/249 248/300/248 263/309/263
f 256/302/256 271/311/271 272/313/272
f 249/303/249 264/312/264 265/314/265
f 258/289/258 257/288/257 272/313/272
f 250/304/250 265/314/265 266/316/266
f 258/289/258 273/315/273 274/317/274
f 252/292/252 251/290/251 266/316/266
f 260/293/260 259/291/259 274/317/274
f 252/292/252 267/318/267 268/320/268
f 260/293/260 275/319/275 276/321/276
f 254/296/254 253/294/253 268/320/268
f 273/315/273 288/338/288 289/322/289
f 267/318/267 266/316/266 281/323/281
f 275/319/275 274/317/274 289/322/289
f 267/318/267 282/324/282 283/326/283
f 275/319/275 290/325/290 291/327/291
f 269/306/269 268/320/268 283/326/283
f 277/305/277 276/321/276 291/327/291
f 270/307/270 269/306/269 284/328/284
f 270/307/270 285/330/285 286/334/286
f 264/312/264 263/309/263 278/332/278
f 271/311/271 286/334/286 287/336/287
f 264/312/264 279/335/279 280/337/280
f 273/315/273 272/313/272 287/336/287
f 265/314/265 280/337/280 281/323/281
f 285/330/285 300/355/300 301/343/301
f 278/332/278 293/340/293 294/344/294
f 286/334/286 301/343/301 302/345/302
f 279/335/279 294/344/294 295/346/295
f 288/338/288 287/336/287 302/345/302
f 280/337/280 295/346/295 296/348/296
f 288/338/288 303/347/303 304/349/304
f 282/324/282 281/323/281 296/348/296
f 290/325/290 289/322/289 304/349/304
f 282/324/282 297/350/297 298/352/298
f 290/325/290 305/351/305 306/353/306
f 284/328/284 283/326/283 298/352/298
f 292/329/292 291/327/291 306/353/306
f 285/330/285 284/328/284 299/354/299
f 297/350/297 296/348/296 312/356/312
f 305/351/305 304/349/304 320/358/320
f 297/350/297 313/357/313 314/360/314
f 305/351/305 321/359/321 322/361/322
f 299/354/299 298/352/298 314/360/314
f 306/353/306 322/361/322 323/363/323
f 300/355/300 299/354/299 315/362/315
f 300/355/300 316/364/316 317/368/317
f 293/340/293 309/366/309 310/369/310
f 301/343/301 317/368/317 318/370/318
f 294/344/294 310/369/310 311/371/311
f 303/347/303 302/345/302 318/370/318
f 295/346/295 311/371/311 312/356/312
f 303/347/303 319/372/319 320/358/320
f 316/364/316 331/386/331 332/373/332
f 309/366/309 324/388/324 325/374/325
f 317/368/317 332/373/332 333/375/333
f 310/369/310 325/374/325 326/376/326
f 319/372/319 318/370/318 333/375/333
f 311/371/311 326/376/326 327/378/327
f 319/372/319 334/377/334 335/379/335
f 312/356/312 327/378/327 328/380/328
f 321/359/321 320/358/320 335/379/335
f 313/357/313 328/380/328 329/382/329
f 321/359/321 336/381/336 337/383/337
f 315/362/315 314/360/314 329/382/329
f 322/361/322 337/383/337 338/385/338
f 316/364/316 315/362/315 330/384/330
f 336/381/336 335/379/335 350/390/350
f 328/380/328 343/406/343 344/392/344
f 336/381/336 351/391/351 352/393/352
f 330/384/330 329/382/329 344/392/344
f 337/383/337 352/393/352 353/395/353
f 331/386/331 330/384/330 345/394/345
f 331/386/331 346/396/346 347/400/347
f 324/388/324 339/398/339 340/401/340
f 332/373/332 347/400/347 348/402/348
f 325/374/325 340/401/340 341/403/341
f 334/377/334 333/375/333 348/402/348
f 326/376/326 341/403/341 342/405/342
f 334/377/334 349/404/349 350/390/350
f 328/380/328 327/378/327 342/405/342
f 339/398/339 354/421/354 355/407/355
f 347/400/347 362/423/362 363/408/363
f 341/403/341 340/401/340 355/407/355
f 349/404/349 348/402/348 363/408/363
f 341/403/341 356/409/356 357/411/357
f 349/404/349 364/410/364 365/412/365
f 343/406/343 342/405/342 357/411/357
f 351/391/351 350/390/350 365/412/365
f 343/406/343 358/413/358 359/415/359
f 351/391/351 366/414/366 367/416/367
f 345/394/345 344/392/344 359/415/359
f 352/393/352 367/416/367 368/418/368
f 346/396/346 345/394/345 360/417/360
f 346/396/346 361/419/361 362/423/362
f 358/424/358 373/454/373 374/425/374
f 366/427/366 381/455/381 382/428/382
f 360/430/360 359/426/359 374/425/374
f 367/429/367 382/428/382 383/432/383
f 361/434/361 360/430/360 375/431/375
f 361/434/361 376/435/376 377/440/377
f 354/436/354 369/438/369 370/442/370
f 362/441/362 377/440/377 378/444/378
f 356/446/356 355/443/355 370/442/370
f 364/448/364 363/445/363 378/444/378
f 356/446/356 371/447/371 372/450/372
f 364/448/364 379/449/379 380/452/380
f 358/424/358 357/451/357 372/450/372
f 366/427/366 365/453/365 380/452/380
f 377/440/377 392/472/392 393/456/393
f 371/447/371 370/442/370 385/457/385
f 379/449/379 378/444/378 393/456/393
f 371/447/371 386/458/386 387/460/387
f 379/449/379 394/459/394 395/461/395
f 373/454/373 372/450/372 387/460/387
f 381/455/381 380/452/380 395/461/395
f 373/454/373 388/462/388 389/464/389
f 381/455/381 396/463/396 397/465/397
f 375/431/375 374/425/374 389/464/389
f 382/428/382 397/465/397 398/467/398
f 376/435/376 375/431/375 390/466/390
f 376/435/376 391/468/391 392/472/392
f 369/438/369 384/470/384 385/457/385
f 397/465/397 396/463/396 411/473/411
f 390/466/390 389/464/389 404/475/404
f 397/465/397 412/474/412 413/477/413
f 391/468/391 390/466/390 405/476/405
f 391/468/391 406/478/406 407/482/407
f 385/457/385 384/470/384 399/480/399
f 392/472/392 407/482/407 408/484/408
f 385/457/385 400/483/400 401/485/401
f 394/459/394 393/456/393 408/484/408
f 386/458/386 401/485/401 402/487/402
f 394/459/394 409/486/409 410/488/410
f 388/462/388 387/460/387 402/487/402
f 396/463/396 395/461/395 410/488/410
f 388/462/388 403/489/403 404/475/404
f 409/486/409 408/484/408 423/490/423
f 401/485/401 416/506/416 417/492/417
f 409/486/409 424/491/424 425/493/425
f 403/489/403 402/487/402 417/492/417
f 411/473/411 410/488/410 425/493/425
f 403/489/403 418/494/418 419/496/419
f 411/473/411 426/495/426 427/497/427
f 405/476/405 404/475/404 419/496/419
f 412/474/412 427/497/427 428/499/428
f 406/478/406 405/476/405 420/498/420
f 406/478/406 421/500/421 422/504/422
f 399/480/399 414/502/414 415/505/415
f 407/482/407 422/504/422 423/490/423
f 401/485/401 400/483/400 415/505/415
f 427/497/427 442/523/442 443/507/443
f 421/500/421 420/498/420 435/508/435
f 421/500/421 436/509/436 437/513/437
f 414/502/414 429/511/429 430/514/430
f 422/504/422 437/513/437 438/515/438
f 416/506/416 415/505/415 430/514/430
f 424/491/424 423/490/423 438/515/438
f 416/506/416 431/516/431 432/518/432
f 424/491/424 439/517/439 440/519/440
f 418/494/418 417/492/417 432/518/432
f 426/495/426 425/493/425 440/519/440
f 418/494/418 433/520/433 434/522/434
f 426/495/426 441/521/441 442/523/442
f 420/498/420 419/496/419 434/522/434
f 431/516/431 446/539/446 447/524/447
f 439/517/439 454/540/454 455/525/455
f 433/520/433 432/518/432 447/524/447
f 441/521/441 440/519/440 455/525/455
f 433/520/433 448/526/448 449/528/449
f 441/521/441 456/527/456 457/529/457
f 435/508/435 434/522/434 449/528/449
f 442/523/442 457/529/457 458/531/458
f 436/509/436 435/508/435 450/530/450
f 436/509/436 451/532/451 452/536/452
f 430/514/430 429/511/429 444/534/444
f 437/513/437 452/536/452 453/538/453
f 430/514/430 445/537/445 446/539/446
f 439/517/439 438/515/438 453/538/453
f 451/532/451 450/530/450 465/541/465
f 451/532/451 466/542/466 467/547/467
f 444/534/444 459/544/459 460/548/460
f 452/536/452 467/547/467 468/549/468
f 446/539/446 445/537/445 460/548/460
f 454/540/454 453/538/453 468/549/468
f 446/539/446 461/550/461 462/552/462
f 454/540/454 469/551/469 470/553/470
f 448/526/448 447/524/447 462/552/462
f 456/527/456 455/525/455 470/553/470
f 448/526/448 463/554/463 464/556/464
f 456/527/456 471/555/471 472/557/472
f 450/530/450 449/528/449 464/556/464
f 458/531/458 457/529/457 472/557/472
f 469/551/469 6/4/6 479/6/479
f 463/554/463 462/552/462 476/1/476
f 471/555/471 470/553/470 479/6/479
f 464/556/464 463/554/463 2/7/2
f 471/555/471 480/10/480 481/14/481
f 465/541/465 464/556/464 477/11/477
f 472/557/472 481/14/481 482/18/482
f 466/542/466 465/541/465 3/15/3
f 466/542/466 4/20/4 5/26/5
f 460/548/460 459/544/459 474/21/474
f 467/547/467 5/26/5 478/30/478
f 461/550/461 460/548/460 475/27/475
f 468/549/468 478/30/478 6/4/6
f 462/552/462 461/550/461 1/31/1
